<svg width="268" height="288" viewBox="0 0 268 288" fill="none" xmlns="http://www.w3.org/2000/svg">
<path d="M256.459 217.754V224.74C256.459 224.74 256.459 224.74 256.459 224.973C256.459 227.068 254.829 229.164 252.035 230.794L159.352 284.122C153.996 287.149 146.079 287.615 141.421 284.82L4.02733 205.411C1.93149 204.247 1 202.617 1 200.754V193.768C1 194.932 1.46577 196.097 2.63012 197.261C3.09587 197.727 3.56159 197.959 4.02733 198.425L7.28754 200.288L141.421 277.834C146.079 280.396 153.996 280.163 159.352 277.136L250.87 224.274L251.802 223.575C252.966 222.877 253.898 222.178 254.596 221.247C255.761 220.315 256.459 218.918 256.459 217.754Z" fill="#262626" stroke="#262626" stroke-width="0.75" stroke-miterlimit="10" stroke-linecap="round" stroke-linejoin="round"/>
<path d="M256.459 217.753C256.459 218.918 255.994 220.315 254.829 221.479C254.131 222.178 253.199 223.109 252.035 223.808L251.103 224.506L159.352 277.135C153.996 280.163 146.079 280.628 141.421 277.834L7.28754 200.288L4.02733 198.425C3.32872 198.192 2.863 197.726 2.63012 197.261C1.46577 196.329 1 195.165 1 193.768C1 191.672 2.63012 189.576 5.42457 187.946L98.1072 134.385C103.463 131.358 111.381 130.892 116.038 133.687L253.432 213.096C255.295 214.493 256.459 216.123 256.459 217.753Z" fill="white" stroke="#262626" stroke-width="0.75" stroke-miterlimit="10" stroke-linecap="round" stroke-linejoin="round"/>
<path d="M236.199 220.315L217.57 231.027C215.94 231.959 213.844 231.959 212.447 231.027L189.625 217.986C184.735 215.192 178.68 215.192 173.79 217.986L152.599 230.096C150.969 231.027 148.873 231.027 147.476 230.096L54.5601 176.535C52.6972 175.604 52.6972 173.042 54.5601 171.878L103.23 143.934C104.394 143.235 106.257 142.769 108.12 142.769C109.518 142.769 110.449 143.002 110.449 143.235L236.199 215.891C238.062 216.822 238.062 219.384 236.199 220.315Z" fill="#ADADAD" stroke="#262626" stroke-width="0.75" stroke-miterlimit="10" stroke-linecap="round" stroke-linejoin="round"/>
<path d="M87.6278 205.178C89.025 205.178 89.9565 205.411 89.9565 205.644L128.147 227.767C130.01 228.698 130.01 231.26 128.147 232.424L107.887 244.3C106.723 244.999 104.86 245.465 102.997 245.465C101.833 245.465 100.436 244.999 99.5042 244.533L62.4777 223.109C60.6147 222.178 60.6147 219.616 62.4777 218.452L82.7375 206.575C83.9018 205.644 85.7648 205.178 87.6278 205.178Z" fill="#ADADAD" stroke="#262626" stroke-width="0.75" stroke-miterlimit="10" stroke-linecap="round" stroke-linejoin="round"/>
<path d="M261.583 100.154V207.042C261.583 207.74 261.583 208.206 261.35 208.905C261.35 209.138 261.35 209.37 261.117 209.836C260.652 211.699 259.953 212.864 258.789 213.795L258.556 214.028C257.159 214.959 255.296 214.727 253.2 213.562L115.806 134.153C111.149 131.592 107.423 124.373 107.423 118.318V11.1974C107.423 7.70432 108.587 5.37561 110.45 4.44413C110.45 4.44413 110.45 4.44413 110.683 4.44413C111.847 3.74551 113.477 3.74551 115.107 4.44413C115.34 4.677 115.806 4.67699 116.039 4.90986L116.505 5.14273L253.433 84.086C259.254 87.3461 261.583 92.2364 261.583 100.154Z" fill="white" stroke="#262626" stroke-width="0.75" stroke-miterlimit="10" stroke-linecap="round" stroke-linejoin="round"/>
<path d="M264.377 87.1128L259.254 89.6744C257.856 87.3457 255.994 85.4827 253.199 84.0855L116.271 5.14224L115.805 4.90938C115.572 4.67651 115.107 4.67651 114.874 4.44364C113.244 3.74503 111.847 3.74503 110.449 4.44364C111.381 3.9779 114.641 1.88205 115.572 1.64918C116.97 0.717699 119.066 0.717709 121.161 2.11493L258.555 81.5239C260.884 82.2225 262.98 84.5512 264.377 87.1128Z" fill="white" stroke="#262626" stroke-width="0.75" stroke-miterlimit="10" stroke-linecap="round" stroke-linejoin="round"/>
<path d="M267.171 96.8927V203.78C267.171 207.273 266.007 209.602 264.144 210.534L259.254 213.328C260.418 212.629 261.117 211.232 261.582 209.369C261.582 209.136 261.582 208.904 261.815 208.438C261.815 207.972 262.048 207.273 262.048 206.575V100.153C262.048 95.9612 261.349 92.701 259.952 89.9065L265.075 87.345C266.007 90.1394 267.171 93.6325 267.171 96.8927Z" fill="#262626" stroke="#262626" stroke-width="0.75" stroke-miterlimit="10" stroke-linecap="round" stroke-linejoin="round"/>
<path d="M182.174 247.095L164.243 236.615C162.147 235.451 162.38 233.122 164.941 231.725L177.284 224.506C179.845 223.109 183.571 222.876 185.667 224.04L203.598 234.52C205.694 235.684 205.461 238.013 202.899 239.41L190.557 246.629C188.229 248.259 184.503 248.259 182.174 247.095Z" fill="#ADADAD" stroke="#262626" stroke-width="0.75" stroke-miterlimit="10" stroke-linecap="round" stroke-linejoin="round"/>
<path d="M252.035 207.041L117.668 129.262C114.874 127.632 112.545 123.207 112.545 119.482V16.3198C112.545 12.5938 114.874 10.7309 117.668 12.361L252.268 90.1398C255.062 91.7699 257.391 96.1945 257.391 99.9204V203.315C257.158 207.041 254.829 208.671 252.035 207.041Z" fill="#7A18D5" stroke="#262626" stroke-width="0.75" stroke-miterlimit="10" stroke-linecap="round" stroke-linejoin="round"/>
<path d="M206.857 93.3998L187.995 82.6877" stroke="white" stroke-width="0.75" stroke-miterlimit="10" stroke-linecap="round" stroke-linejoin="round"/>
<path d="M206.857 93.3996L200.57 89.9065" stroke="white" stroke-width="0.75" stroke-miterlimit="10" stroke-linecap="round" stroke-linejoin="round"/>
<path d="M131.641 50.0852L125.353 46.3593" stroke="white" stroke-width="0.75" stroke-miterlimit="10" stroke-linecap="round" stroke-linejoin="round"/>
<path d="M131.641 64.5237L125.353 60.7978" stroke="white" stroke-width="0.75" stroke-miterlimit="10" stroke-linecap="round" stroke-linejoin="round"/>
<path d="M131.641 78.9617L125.353 75.2358" stroke="white" stroke-width="0.75" stroke-miterlimit="10" stroke-linecap="round" stroke-linejoin="round"/>
<path d="M131.641 93.3995L125.353 89.9064" stroke="white" stroke-width="0.75" stroke-miterlimit="10" stroke-linecap="round" stroke-linejoin="round"/>
<path d="M131.641 107.837L125.353 104.344" stroke="white" stroke-width="0.75" stroke-miterlimit="10" stroke-linecap="round" stroke-linejoin="round"/>
<path d="M169.132 71.7419L137.694 53.578" stroke="white" stroke-width="0.75" stroke-miterlimit="10" stroke-linecap="round" stroke-linejoin="round"/>
<path d="M143.982 71.7419L137.694 68.016" stroke="white" stroke-width="0.75" stroke-miterlimit="10" stroke-linecap="round" stroke-linejoin="round"/>
<path d="M143.982 86.1802L137.694 82.6871" stroke="white" stroke-width="0.75" stroke-miterlimit="10" stroke-linecap="round" stroke-linejoin="round"/>
<path d="M150.269 104.344L137.694 97.1249" stroke="white" stroke-width="0.75" stroke-miterlimit="10" stroke-linecap="round" stroke-linejoin="round"/>
<path d="M143.982 115.289L137.694 111.563" stroke="white" stroke-width="0.75" stroke-miterlimit="10" stroke-linecap="round" stroke-linejoin="round"/>
<path d="M156.559 78.9617L150.271 75.2358" stroke="white" stroke-width="0.75" stroke-miterlimit="10" stroke-linecap="round" stroke-linejoin="round"/>
<path d="M156.559 107.837L150.271 104.344" stroke="white" stroke-width="0.75" stroke-miterlimit="10" stroke-linecap="round" stroke-linejoin="round"/>
<path d="M156.558 122.508L143.983 115.289" stroke="white" stroke-width="0.75" stroke-miterlimit="10" stroke-linecap="round" stroke-linejoin="round"/>
<path d="M169.132 129.727L156.557 122.508" stroke="white" stroke-width="0.75" stroke-miterlimit="10" stroke-linecap="round" stroke-linejoin="round"/>
<path d="M181.707 78.9617L175.42 75.2358" stroke="white" stroke-width="0.75" stroke-miterlimit="10" stroke-linecap="round" stroke-linejoin="round"/>
<path d="M181.707 136.946L175.42 133.22" stroke="white" stroke-width="0.75" stroke-miterlimit="10" stroke-linecap="round" stroke-linejoin="round"/>
<path d="M213.145 155.11L187.995 140.439" stroke="white" stroke-width="0.75" stroke-miterlimit="10" stroke-linecap="round" stroke-linejoin="round"/>
<path d="M219.433 100.618L213.146 97.1249" stroke="white" stroke-width="0.75" stroke-miterlimit="10" stroke-linecap="round" stroke-linejoin="round"/>
<path d="M238.063 126.001L213.146 111.563" stroke="white" stroke-width="0.75" stroke-miterlimit="10" stroke-linecap="round" stroke-linejoin="round"/>
<path d="M219.433 144.165L213.146 140.439" stroke="white" stroke-width="0.75" stroke-miterlimit="10" stroke-linecap="round" stroke-linejoin="round"/>
<path d="M219.433 158.603L213.146 155.11" stroke="white" stroke-width="0.75" stroke-miterlimit="10" stroke-linecap="round" stroke-linejoin="round"/>
<path d="M232.008 107.837L219.433 100.618" stroke="white" stroke-width="0.75" stroke-miterlimit="10" stroke-linecap="round" stroke-linejoin="round"/>
<path d="M232.008 136.946L225.721 133.22" stroke="white" stroke-width="0.75" stroke-miterlimit="10" stroke-linecap="round" stroke-linejoin="round"/>
<path d="M232.008 151.384L225.721 147.891" stroke="white" stroke-width="0.75" stroke-miterlimit="10" stroke-linecap="round" stroke-linejoin="round"/>
<path d="M232.008 165.822L225.721 162.329" stroke="white" stroke-width="0.75" stroke-miterlimit="10" stroke-linecap="round" stroke-linejoin="round"/>
<path d="M244.35 115.289L238.063 111.563" stroke="white" stroke-width="0.75" stroke-miterlimit="10" stroke-linecap="round" stroke-linejoin="round"/>
<path d="M131.641 122.275L125.353 118.782" stroke="white" stroke-width="0.75" stroke-miterlimit="10" stroke-linecap="round" stroke-linejoin="round"/>
<path d="M169.132 144.165L137.694 126.001" stroke="white" stroke-width="0.75" stroke-miterlimit="10" stroke-linecap="round" stroke-linejoin="round"/>
<path d="M181.707 151.384L175.42 147.658" stroke="white" stroke-width="0.75" stroke-miterlimit="10" stroke-linecap="round" stroke-linejoin="round"/>
<path d="M206.858 165.822L187.995 154.877" stroke="white" stroke-width="0.75" stroke-miterlimit="10" stroke-linecap="round" stroke-linejoin="round"/>
<path d="M219.433 173.041L213.146 169.548" stroke="white" stroke-width="0.75" stroke-miterlimit="10" stroke-linecap="round" stroke-linejoin="round"/>
<path d="M232.008 180.26L219.433 173.041" stroke="white" stroke-width="0.75" stroke-miterlimit="10" stroke-linecap="round" stroke-linejoin="round"/>
<path d="M244.35 187.479L238.063 183.986" stroke="white" stroke-width="0.75" stroke-miterlimit="10" stroke-linecap="round" stroke-linejoin="round"/>
<path d="M244.35 129.727L238.063 126.001" stroke="white" stroke-width="0.75" stroke-miterlimit="10" stroke-linecap="round" stroke-linejoin="round"/>
<path d="M244.35 144.165L238.063 140.439" stroke="white" stroke-width="0.75" stroke-miterlimit="10" stroke-linecap="round" stroke-linejoin="round"/>
<path d="M244.349 158.603L232.007 151.384" stroke="white" stroke-width="0.75" stroke-miterlimit="10" stroke-linecap="round" stroke-linejoin="round"/>
<path d="M244.35 173.041L238.063 169.548" stroke="white" stroke-width="0.75" stroke-miterlimit="10" stroke-linecap="round" stroke-linejoin="round"/>
<path d="M131.641 35.1815L125.353 31.4556" stroke="white" stroke-width="0.75" stroke-miterlimit="10" stroke-linecap="round" stroke-linejoin="round"/>
<path d="M143.982 42.4005L137.694 38.9075" stroke="white" stroke-width="0.75" stroke-miterlimit="10" stroke-linecap="round" stroke-linejoin="round"/>
<path d="M156.558 49.6193L143.983 42.4003" stroke="white" stroke-width="0.75" stroke-miterlimit="10" stroke-linecap="round" stroke-linejoin="round"/>
<path d="M169.132 56.839L156.557 49.62" stroke="white" stroke-width="0.75" stroke-miterlimit="10" stroke-linecap="round" stroke-linejoin="round"/>
<path d="M181.707 64.0572L175.42 60.5641" stroke="white" stroke-width="0.75" stroke-miterlimit="10" stroke-linecap="round" stroke-linejoin="round"/>
<path d="M213.145 82.2219L187.995 67.7839" stroke="white" stroke-width="0.75" stroke-miterlimit="10" stroke-linecap="round" stroke-linejoin="round"/>
<path d="M232.008 93.1661L225.721 89.4402" stroke="white" stroke-width="0.75" stroke-miterlimit="10" stroke-linecap="round" stroke-linejoin="round"/>
<path d="M244.35 100.385L238.063 96.6594" stroke="white" stroke-width="0.75" stroke-miterlimit="10" stroke-linecap="round" stroke-linejoin="round"/>
<path d="M195.913 99.9194L209.885 124.138L195.913 132.289" stroke="white" stroke-width="0.75" stroke-miterlimit="10" stroke-linecap="round" stroke-linejoin="round"/>
<path d="M173.79 119.713L159.818 95.262L173.79 87.1116" stroke="white" stroke-width="0.75" stroke-miterlimit="10" stroke-linecap="round" stroke-linejoin="round"/>
</svg>
