<svg width="131" height="306" viewBox="0 0 131 306" fill="none" xmlns="http://www.w3.org/2000/svg">
<path d="M1 229.782C1 236.083 5.20068 243.434 10.7141 246.585L109.169 303.295C112.057 304.87 114.42 305.132 116.257 303.82C116.52 303.82 116.52 303.557 116.782 303.557C117.045 303.557 117.045 303.295 117.308 303.295C117.308 303.295 117.57 303.032 117.57 302.77C117.833 302.507 118.095 302.244 118.095 301.719C118.095 301.457 118.358 301.457 118.358 301.194C118.358 300.932 118.62 300.669 118.62 300.407C118.62 300.144 118.62 300.144 118.62 299.882C118.62 299.619 118.62 299.356 118.62 299.094C118.62 298.831 118.62 298.831 118.62 298.569C118.62 298.306 118.62 298.044 118.62 297.519V293.055V267.063V241.596L118.883 184.624V184.099V168.346L119.145 112.424V110.849V93.7835V86.9574V81.7065C119.145 75.4054 114.945 68.0541 109.431 64.9035L87.3774 52.3014L69.2618 41.7996L40.6443 25.2593L37.4938 23.4214L11.2392 8.19383C10.9767 7.93128 10.4516 7.66871 10.1891 7.66871C8.87636 7.14362 7.56357 6.8811 6.51339 6.8811C6.25084 6.8811 6.25089 6.8811 5.98834 6.8811C5.7258 6.8811 5.72577 6.8811 5.46322 6.8811C5.20068 6.8811 4.6756 7.14368 4.41306 7.40623C2.57524 8.45641 1.52504 10.5567 1.52504 13.7072V26.8345V44.425L1 198.802V229.782Z" fill="white" stroke="#262626" stroke-width="0.75" stroke-miterlimit="10" stroke-linecap="round" stroke-linejoin="round"/>
<path d="M111.007 111.899C111.007 109.536 109.432 106.911 107.594 105.861L12.2899 50.9889C10.452 49.9387 8.87678 50.7263 8.61423 53.0892L8.08911 199.327C8.08911 201.69 9.66443 204.315 11.5022 205.365L106.544 260.237C108.381 261.288 110.219 260.5 110.219 258.137L111.007 111.899Z" fill="#E06AE9" stroke="#262626" stroke-width="0.75" stroke-miterlimit="10" stroke-linecap="round" stroke-linejoin="round"/>
<path d="M111.007 111.899C111.007 109.536 109.432 106.911 107.594 105.861L12.2899 50.9889C10.452 49.9387 8.87678 50.7263 8.61423 53.0892L8.08911 199.327C8.08911 201.69 9.66443 204.315 11.5022 205.365L106.544 260.237C108.381 261.288 110.219 260.5 110.219 258.137L111.007 111.899Z" stroke="#262626" stroke-width="0.75" stroke-miterlimit="10" stroke-linecap="round" stroke-linejoin="round"/>
<path d="M4.67497 7.93111C4.93752 7.66856 5.20005 7.66869 5.72514 7.40615C5.98768 7.40615 5.98771 7.40615 6.25026 7.40615C6.51281 7.40615 6.51276 7.40615 6.7753 7.40615C7.82548 7.40615 9.13819 7.40612 10.4509 8.19375C10.7135 8.4563 11.2386 8.45633 11.5012 8.71887L37.7557 23.9465L40.9062 25.7843L69.5236 42.3246L87.6393 52.8264L109.693 65.4286C114.944 68.5791 119.407 75.9305 119.407 82.2315V87.4825V94.3086V111.374V112.949L120.195 112.424L130.172 106.648V75.9304C130.172 69.6293 125.708 62.278 120.457 59.1274L22.2655 2.41772C19.64 0.842452 17.0146 0.579939 15.4393 1.63012L4.67497 7.93111Z" fill="white" stroke="#262626" stroke-width="0.75" stroke-miterlimit="10" stroke-linecap="round" stroke-linejoin="round"/>
<path d="M116.257 304.345L127.021 298.044C128.859 296.994 129.909 294.893 129.909 291.743V287.017V261.025L119.145 267.326V293.318V297.781C119.145 298.044 119.145 298.306 119.145 298.831C119.145 299.094 119.145 299.094 119.145 299.356C119.145 299.619 119.145 299.882 119.145 300.144C119.145 300.407 119.145 300.407 119.145 300.669C119.145 300.932 118.882 301.194 118.882 301.457C118.882 301.719 118.62 301.719 118.62 301.982C118.357 302.244 118.357 302.77 118.095 303.032C118.095 303.295 117.832 303.295 117.832 303.557C117.57 303.557 117.57 303.82 117.307 303.82C116.519 303.82 116.519 304.082 116.257 304.345C116.257 304.082 116.257 304.082 116.257 304.345Z" fill="white"/>
<path d="M116.257 304.345L127.021 298.044C128.859 296.994 129.909 294.893 129.909 291.743V287.017V261.025L119.145 267.326V293.318V297.781C119.145 298.044 119.145 298.306 119.145 298.831C119.145 299.094 119.145 299.094 119.145 299.356C119.145 299.619 119.145 299.882 119.145 300.144C119.145 300.407 119.145 300.407 119.145 300.669C119.145 300.932 118.882 301.194 118.882 301.457C118.882 301.719 118.62 301.719 118.62 301.982C118.357 302.244 118.357 302.77 118.095 303.032C118.095 303.295 117.832 303.295 117.832 303.557C117.57 303.557 117.57 303.82 117.307 303.82C116.519 303.82 116.519 304.082 116.257 304.345ZM116.257 304.345C116.257 304.082 116.257 304.082 116.257 304.345Z" stroke="#262626" stroke-width="0.75" stroke-miterlimit="10" stroke-linecap="round" stroke-linejoin="round"/>
<path d="M119.145 267.326L129.909 261.025L130.172 106.648L120.195 112.424L119.408 112.949V168.871V184.624V184.887L119.145 241.859V267.326Z" fill="white" stroke="#262626" stroke-width="0.75" stroke-miterlimit="10" stroke-linecap="round" stroke-linejoin="round"/>
<path d="M54.5579 158.632C55.3456 158.894 56.1332 159.157 56.9208 159.682C56.1332 159.157 55.3456 158.894 54.5579 158.632Z" fill="white" stroke="#262626" stroke-width="0.75" stroke-miterlimit="10" stroke-linecap="round" stroke-linejoin="round"/>
<path d="M35.3926 173.597C36.1802 163.62 41.6937 157.844 49.3075 157.844C49.5701 157.844 50.0952 157.844 50.3577 157.844H50.6203C50.8828 157.844 51.4079 157.844 51.6704 158.107C52.1955 158.107 52.4581 158.369 52.9832 158.369C52.7206 158.369 52.4581 158.107 51.933 158.107C51.6704 158.107 51.4079 158.107 50.8828 157.844C42.4814 156.794 35.9177 162.57 35.3926 173.597Z" fill="white" stroke="#262626" stroke-width="0.75" stroke-miterlimit="10" stroke-linecap="round" stroke-linejoin="round"/>
<path d="M48.7826 141.042C48.7826 148.393 54.0335 157.582 60.3346 161.258C66.8982 164.933 72.1491 162.045 72.1491 154.432C72.1491 147.08 66.8982 137.891 60.5972 134.216C54.0335 130.54 48.7826 133.69 48.7826 141.042Z" fill="white" stroke="#262626" stroke-width="0.75" stroke-miterlimit="10" stroke-linecap="round" stroke-linejoin="round"/>
<path d="M35.3928 173.597C36.1804 163.62 41.6939 157.844 49.3077 157.844C49.5703 157.844 50.0954 157.844 50.3579 157.844H50.6205C50.883 157.844 50.883 157.844 51.1455 157.844C42.4815 156.794 35.9179 162.57 35.3928 173.597ZM52.1958 158.107C51.9332 158.107 51.6706 158.107 51.1455 157.844C51.4081 157.844 51.6706 157.844 51.6706 157.844C51.9332 158.107 52.1958 158.107 52.1958 158.107Z" fill="white" stroke="#262626" stroke-width="0.75" stroke-miterlimit="10" stroke-linecap="round" stroke-linejoin="round"/>
<path d="M35.3933 175.697C35.3933 174.91 35.3933 174.122 35.3933 173.597C35.9184 162.57 42.482 156.794 51.146 157.844C51.4085 157.844 51.6711 157.844 52.1962 158.107C52.4588 158.107 52.7213 158.107 53.2464 158.369C53.7715 158.369 54.2966 158.632 54.5591 158.632C55.3468 158.894 56.1344 159.157 56.922 159.682C57.9722 160.207 59.0224 160.732 60.0726 161.257C53.509 157.582 48.5205 148.393 48.5205 141.041C48.5205 133.69 53.7714 130.54 60.3351 134.478C66.8987 138.153 71.8871 147.343 71.8871 154.694C71.8871 162.045 66.6362 165.196 60.0726 161.52C73.9875 169.396 85.0144 189.087 85.0144 204.84C93.4158 201.427 98.9293 192.5 98.9293 178.848C98.9293 154.169 81.6012 124.239 60.3351 111.899C38.8064 99.5593 21.4784 109.536 21.4784 133.953C21.4784 147.342 26.9918 162.57 35.3933 175.697Z" fill="#262626" stroke="#262626" stroke-width="0.75" stroke-miterlimit="10" stroke-linecap="round" stroke-linejoin="round"/>
<path d="M35.3928 175.435C42.219 186.199 50.883 195.126 60.3346 200.639C69.7862 206.152 78.4502 207.203 85.2764 204.577C85.2764 188.824 74.2495 169.134 60.3346 161.257C59.2844 160.732 58.2343 159.945 57.1841 159.682C56.3965 159.419 55.6088 159.157 54.8212 158.632C54.2961 158.369 53.771 158.369 53.5085 158.369C52.9834 158.369 52.7208 158.107 52.1958 158.107C51.9332 158.107 51.4081 158.107 51.1455 157.844H50.883C50.6205 157.844 50.0953 157.844 49.8328 157.844C41.9564 157.844 36.443 163.62 35.9179 173.597C35.3928 174.122 35.3928 174.91 35.3928 175.435Z" fill="white" stroke="#262626" stroke-width="0.75" stroke-miterlimit="10" stroke-linecap="round" stroke-linejoin="round"/>
<path d="M50.8834 248.948L69.2616 259.449" stroke="#262626" stroke-width="0.75" stroke-miterlimit="10" stroke-linecap="round" stroke-linejoin="round"/>
<path d="M51.4092 52.5637L69.7874 63.3282" stroke="#262626" stroke-width="0.75" stroke-miterlimit="10" stroke-linecap="round" stroke-linejoin="round"/>
</svg>
