<svg width="197" height="258" viewBox="0 0 197 258" fill="none" xmlns="http://www.w3.org/2000/svg">
<path d="M26.0154 160.998C-3.62142 93.7489 6.72451 24.1294 49.186 5.48514C91.6474 -13.1591 150.059 26.2848 179.696 93.5334C209.332 160.782 198.987 230.402 156.525 249.046C114.064 267.69 55.6522 228.246 26.0154 160.998Z" fill="#3B2E56" stroke="#262626" stroke-width="0.5" stroke-miterlimit="10"/>
<path d="M17.8229 164.231C-11.8138 96.982 -1.25237 27.2547 41.3168 8.61047C83.8861 -10.1415 142.513 29.3023 172.15 96.5509C201.787 163.8 191.333 233.527 148.656 252.279C106.087 270.815 47.4597 231.479 17.8229 164.231Z" fill="#7A18D5" stroke="#262626" stroke-width="0.5" stroke-miterlimit="10"/>
<path d="M119.339 119.722V127.804L94.1211 113.148L93.9056 172.744L86.9005 168.649L87.116 109.16L61.79 94.5033L61.8978 86.5283L119.339 119.722Z" fill="white" stroke="#262626" stroke-width="0.5" stroke-miterlimit="10"/>
<path d="M90.5671 187.401C62.4391 171.344 39.6996 130.175 39.6996 98.2754C39.8074 66.3755 64.379 54.3052 92.507 70.2552C120.635 86.2052 143.482 125.218 143.482 157.118C143.482 189.018 119.773 204.645 91.537 188.587L90.5671 187.401ZM92.6147 61.2025C59.9604 42.666 33.4489 57.5383 33.3411 94.5035C33.2334 131.361 59.6371 176.517 92.2914 195.053C124.838 213.59 151.457 198.717 151.565 161.752C151.673 124.895 125.269 79.739 92.6147 61.2025Z" fill="#D0D2D3" stroke="#262626" stroke-width="0.5" stroke-miterlimit="10"/>
<path d="M90.3516 186.324C63.0857 170.589 40.9928 132.331 41.1006 100.97C41.2084 69.6086 63.409 56.9995 90.6749 72.734C117.941 88.4684 140.034 126.727 139.926 158.088C139.926 189.341 117.617 202.058 90.3516 186.324ZM90.7827 63.7891C59.206 45.5759 33.4489 60.2326 33.3412 96.4434C33.2334 132.654 58.7749 176.948 90.3516 195.161C121.928 213.374 147.578 198.717 147.685 162.507C147.793 126.296 122.252 82.0022 90.7827 63.7891Z" fill="white" stroke="#262626" stroke-width="0.5" stroke-miterlimit="10"/>
</svg>
