<svg width="177" height="306" viewBox="0 0 177 306" fill="none" xmlns="http://www.w3.org/2000/svg">
<path d="M157.246 130.531L1.48902 40.549L1 207.553C1 211.221 3.68968 215.867 6.86839 217.579L113.966 279.441L157.001 304.137C160.18 306.093 162.87 304.626 162.87 300.714L163.114 221.735L163.359 140.067V133.465L157.246 130.531Z" fill="white" stroke="#262626" stroke-width="0.75" stroke-miterlimit="10" stroke-linecap="round" stroke-linejoin="round"/>
<path d="M163.359 105.346V109.991V127.597V133.954L157.246 130.531L1.48975 40.549V11.9406C1.48975 9.98443 2.2233 8.51724 3.44588 8.02821C3.6904 8.02821 3.93491 7.78375 3.93491 7.78375C4.17942 7.78375 4.42395 7.78375 4.66846 7.78375C5.40201 7.78375 6.38007 8.02824 7.35814 8.51727L157.491 95.076C160.67 97.2767 163.359 101.678 163.359 105.346Z" fill="#7A18D5" stroke="#262626" stroke-width="0.75" stroke-miterlimit="10" stroke-linecap="round" stroke-linejoin="round"/>
<path d="M175.829 126.619L175.585 214.645L175.34 293.623C175.34 295.58 174.606 296.802 173.628 297.291L161.158 304.382C161.403 304.138 161.647 304.138 161.647 303.893L161.892 303.649C161.892 303.404 162.136 303.404 162.136 303.16C162.136 302.915 162.381 302.671 162.381 302.426C162.381 302.181 162.381 301.937 162.625 301.692C162.625 301.692 162.625 301.448 162.625 301.203C162.625 300.959 162.625 300.714 162.625 300.47L162.87 221.491L163.114 139.823V133.221L166.782 131.02L175.829 126.619Z" fill="white" stroke="#262626" stroke-width="0.75" stroke-miterlimit="10" stroke-linecap="round" stroke-linejoin="round"/>
<path d="M175.829 98.2549V126.863L167.026 131.998L163.359 134.199V127.841V110.236V105.59C163.359 101.923 160.669 97.2769 157.49 95.5653L7.35744 9.0065C6.37938 8.51747 5.64584 8.27298 4.66777 8.27298C4.42325 8.27298 4.17873 8.27298 3.93422 8.27298C3.6897 8.27298 3.44519 8.27292 3.44519 8.51744L15.671 1.42656C16.6491 0.69301 18.1161 0.937407 19.8278 1.91547L169.961 88.4742C173.139 89.9413 175.829 94.3426 175.829 98.2549Z" fill="#3B2E56" stroke="#262626" stroke-width="0.75" stroke-miterlimit="10" stroke-linecap="round" stroke-linejoin="round"/>
<path d="M28.3846 38.5929C28.3846 41.2826 26.4285 42.2607 24.2279 41.0381C22.0272 39.8155 20.0711 36.3924 20.0711 33.9472C20.0711 31.2575 22.0272 30.2795 24.2279 31.502C26.4285 32.7246 28.3846 35.9032 28.3846 38.5929Z" fill="#262626" stroke="white" stroke-width="0.75" stroke-miterlimit="10" stroke-linecap="round" stroke-linejoin="round"/>
<path d="M42.5691 47.8846C42.5691 50.5743 40.613 51.5524 38.4123 50.3298C36.2117 49.1072 34.2556 45.6839 34.2556 43.2388C34.2556 40.5491 36.2117 39.571 38.4123 40.7936C40.613 42.0162 42.5691 45.195 42.5691 47.8846Z" fill="#262626" stroke="white" stroke-width="0.75" stroke-miterlimit="10" stroke-linecap="round" stroke-linejoin="round"/>
<path d="M57.7281 56.1986C57.7281 58.8882 55.772 59.8663 53.5714 58.6437C51.3707 57.4211 49.4146 53.998 49.4146 51.5528C49.4146 48.8632 51.3707 47.8851 53.5714 49.1077C56.0165 50.3303 57.7281 53.7534 57.7281 56.1986Z" fill="#262626" stroke="white" stroke-width="0.75" stroke-miterlimit="10" stroke-linecap="round" stroke-linejoin="round"/>
<path d="M136 153.185C136 150.558 134.19 147.324 131.978 146.111L32.0223 88.5091C29.8101 87.2965 28 88.307 28 90.9345V194.613C28 197.24 29.8101 200.474 32.0223 201.687L131.777 259.491C133.989 260.704 135.799 259.693 136 257.066V153.185Z" fill="white" stroke="#262626" stroke-width="0.75" stroke-miterlimit="10" stroke-linecap="round" stroke-linejoin="round"/>
<line x1="33.3153" y1="94.797" x2="136.315" y2="254.797" stroke="#262626" stroke-width="0.75"/>
<line x1="134.153" y1="149.343" x2="33.1526" y2="194.343" stroke="#262626" stroke-width="0.75"/>
<path d="M19.2102 102.331C13.6021 89.6057 15.6006 76.4113 23.656 72.8832C31.7113 69.3348 42.8052 76.7987 48.4134 89.5241C54.0215 102.25 52.0434 115.444 43.9677 118.992C35.9123 122.5 24.8184 115.056 19.2102 102.331Z" fill="#FFAD28" stroke="#262626" stroke-width="0.5" stroke-miterlimit="10"/>
<path d="M38.4203 93.9087V95.4382L33.6482 92.6647L33.6075 103.942L32.2819 103.167L32.3227 91.9102L27.5303 89.1367L27.5507 87.6276L38.4203 93.9087Z" fill="white" stroke="#262626" stroke-width="0.5" stroke-miterlimit="10"/>
<path d="M32.9346 106.512C27.7751 103.534 23.5945 96.2949 23.6149 90.3604C23.6353 84.426 27.8363 82.04 32.9958 85.0174C38.1553 87.9948 42.3359 95.2344 42.3155 101.169C42.3155 107.083 38.0941 109.489 32.9346 106.512ZM33.0162 83.3248C27.0409 79.8783 22.1669 82.6518 22.1465 89.5039C22.1262 96.356 26.9594 104.738 32.9346 108.184C38.9098 111.631 43.7634 108.857 43.7838 102.005C43.8042 95.1528 38.971 86.7712 33.0162 83.3248Z" fill="white" stroke="#262626" stroke-width="0.5" stroke-miterlimit="10"/>
<path d="M19.2102 202.331C13.6021 189.606 15.6006 176.411 23.656 172.883C31.7113 169.335 42.8052 176.799 48.4134 189.524C54.0215 202.25 52.0434 215.444 43.9677 218.992C35.9123 222.5 24.8184 215.056 19.2102 202.331Z" fill="#7A18D5" stroke="#262626" stroke-width="0.5" stroke-miterlimit="10"/>
<path d="M38.4203 193.909V195.438L33.6482 192.665L33.6075 203.942L32.2819 203.167L32.3227 191.91L27.5303 189.137L27.5507 187.628L38.4203 193.909Z" fill="white" stroke="#262626" stroke-width="0.5" stroke-miterlimit="10"/>
<path d="M32.9346 206.512C27.7751 203.534 23.5945 196.295 23.6149 190.36C23.6353 184.426 27.8363 182.04 32.9958 185.017C38.1553 187.995 42.3359 195.234 42.3155 201.169C42.3155 207.083 38.0941 209.489 32.9346 206.512ZM33.0162 183.325C27.0409 179.878 22.1669 182.652 22.1465 189.504C22.1262 196.356 26.9594 204.738 32.9346 208.184C38.9098 211.631 43.7634 208.857 43.7838 202.005C43.8042 195.153 38.971 186.771 33.0162 183.325Z" fill="white" stroke="#262626" stroke-width="0.5" stroke-miterlimit="10"/>
<path d="M119.183 258.331C113.575 245.606 115.574 232.411 123.629 228.883C131.684 225.335 142.778 232.799 148.387 245.524C153.995 258.25 152.017 271.444 143.941 274.992C135.885 278.5 124.792 271.056 119.183 258.331Z" fill="#E84142" stroke="#262626" stroke-width="0.5" stroke-miterlimit="10"/>
<path d="M138.393 249.909V251.438L133.621 248.665L133.581 259.942L132.255 259.167L132.296 247.91L127.503 245.137L127.524 243.628L138.393 249.909Z" fill="white" stroke="#262626" stroke-width="0.5" stroke-miterlimit="10"/>
<path d="M132.908 262.512C127.748 259.534 123.568 252.295 123.588 246.36C123.608 240.426 127.809 238.04 132.969 241.017C138.128 243.995 142.309 251.234 142.289 257.169C142.289 263.083 138.067 265.489 132.908 262.512ZM132.989 239.325C127.014 235.878 122.14 238.652 122.12 245.504C122.099 252.356 126.933 260.738 132.908 264.184C138.883 267.631 143.737 264.857 143.757 258.005C143.777 251.153 138.944 242.771 132.989 239.325Z" fill="white" stroke="#262626" stroke-width="0.5" stroke-miterlimit="10"/>
<path d="M119.183 161.331C113.575 148.606 115.574 135.411 123.629 131.883C131.684 128.335 142.778 135.799 148.387 148.524C153.995 161.25 152.017 174.444 143.941 177.992C135.885 181.5 124.792 174.056 119.183 161.331Z" fill="#E06AE9" stroke="#262626" stroke-width="0.5" stroke-miterlimit="10"/>
<path d="M138.393 152.909V154.438L133.621 151.665L133.581 162.942L132.255 162.167L132.296 150.91L127.503 148.137L127.524 146.628L138.393 152.909Z" fill="white" stroke="#262626" stroke-width="0.5" stroke-miterlimit="10"/>
<path d="M132.908 165.512C127.748 162.534 123.568 155.295 123.588 149.36C123.608 143.426 127.809 141.04 132.969 144.017C138.128 146.995 142.309 154.234 142.289 160.169C142.289 166.083 138.067 168.489 132.908 165.512ZM132.989 142.325C127.014 138.878 122.14 141.652 122.12 148.504C122.099 155.356 126.933 163.738 132.908 167.184C138.883 170.631 143.737 167.857 143.757 161.005C143.777 154.153 138.944 145.771 132.989 142.325Z" fill="white" stroke="#262626" stroke-width="0.5" stroke-miterlimit="10"/>
</svg>
