<svg width="172" height="306" viewBox="0 0 172 306" fill="none" xmlns="http://www.w3.org/2000/svg">
<path d="M102.769 223.45V286.995C102.769 288.212 102.525 289.673 102.282 290.89C100.578 298.925 93.7605 304.768 85.7261 304.768C76.4744 304.768 68.927 295.76 68.927 286.508V224.181C69.1704 226.372 70.8747 228.807 73.7963 230.511C76.2309 231.972 79.1526 232.702 82.5611 233.189C87.9173 233.919 93.7605 232.945 97.8994 230.511C101.064 228.563 102.769 226.128 102.769 223.45Z" fill="#FFAD28" stroke="#262626" stroke-width="0.75" stroke-miterlimit="10" stroke-linecap="round" stroke-linejoin="round"/>
<path d="M102.282 290.89C100.578 298.925 93.7605 304.768 85.7261 304.768C76.4744 304.768 68.927 295.76 68.927 286.508V224.181C69.1704 226.372 70.8747 228.807 73.7963 230.511C76.2309 231.972 79.1526 232.702 82.5611 233.189C82.3176 248.284 82.0741 261.188 82.5611 279.935C82.5611 284.804 85.7261 290.404 89.8651 293.325C92.5432 295.273 96.1951 295.516 99.1167 293.812C100.334 293.082 101.551 292.108 102.282 290.89Z" fill="#FFAD28"/>
<path d="M102.769 223.45V286.995C102.769 288.212 102.525 289.673 102.282 290.89C100.578 298.925 93.7605 304.768 85.7261 304.768C76.4744 304.768 68.927 295.76 68.927 286.508V224.181C69.1704 226.372 70.8747 228.807 73.7963 230.511C76.2309 231.972 79.1526 232.702 82.5611 233.189C87.9173 233.919 93.7605 232.945 97.8994 230.511C101.064 228.563 102.769 226.128 102.769 223.45Z" stroke="#262626" stroke-width="0.75" stroke-miterlimit="10" stroke-linecap="round" stroke-linejoin="round"/>
<path d="M102.769 223.45C102.769 225.885 101.064 228.563 97.8994 230.267C91.3258 234.163 80.6134 234.163 74.0398 230.267C71.1182 228.563 69.4139 226.372 69.1705 223.937V223.45H102.769Z" fill="white" stroke="#262626" stroke-width="0.75" stroke-miterlimit="10" stroke-linecap="round" stroke-linejoin="round"/>
<path d="M102.769 223.45C102.769 225.885 101.065 228.563 97.8997 230.267C91.3261 234.163 80.6136 234.163 74.0401 230.267C71.1185 228.563 69.4142 226.372 69.1707 223.937C68.9273 221.259 70.6315 218.581 74.0401 216.39C75.5009 215.416 77.4485 214.686 79.3963 214.442C83.7787 213.468 88.648 213.468 92.7869 214.442C94.7346 214.929 96.4389 215.659 98.1432 216.39C101.065 218.581 102.769 221.016 102.769 223.45Z" fill="#FFAD28" stroke="#262626" stroke-width="0.75" stroke-miterlimit="10" stroke-linecap="round" stroke-linejoin="round"/>
<path d="M96.4388 212.982L96.1954 213.469L96.4388 212.982Z" fill="#D0D2D3"/>
<path d="M92.7866 196.669V221.746C92.7866 222.72 92.0563 223.694 90.8389 224.425C89.1347 225.399 86.9435 225.642 84.7523 225.398C83.535 225.155 82.3176 224.912 81.3438 224.425C80.1265 223.694 79.396 222.72 79.396 221.746V196.669C79.396 193.018 82.3176 189.852 86.2131 189.852C89.8651 190.096 92.7866 193.018 92.7866 196.669Z" fill="white"/>
<path d="M92.7871 196.67V212.738C91.8132 212.251 90.8394 211.521 89.8656 211.034C88.8917 210.547 87.4309 210.304 86.457 210.791C85.7266 211.277 85.2397 212.008 84.9962 212.982C84.7528 213.956 84.7528 214.686 84.7528 215.66C84.7528 218.581 84.9962 221.503 84.9962 224.425C84.9962 224.668 84.9962 225.155 84.9962 225.398C83.7789 225.155 82.5616 224.912 81.5877 224.425C80.3704 223.694 79.64 222.72 79.64 221.746V196.67C79.64 193.018 82.5616 189.853 86.457 189.853C89.8656 190.096 92.7871 193.018 92.7871 196.67Z" fill="#D0D2D3"/>
<path d="M92.7866 196.669V221.746C92.7866 222.72 92.0563 223.694 90.8389 224.425C89.1347 225.399 86.9435 225.642 84.7523 225.398C83.535 225.155 82.3176 224.912 81.3438 224.425C80.1265 223.694 79.396 222.72 79.396 221.746V196.669C79.396 193.018 82.3176 189.852 86.2131 189.852C89.8651 190.096 92.7866 193.018 92.7866 196.669Z" stroke="#262626" stroke-width="0.75" stroke-miterlimit="10" stroke-linecap="round" stroke-linejoin="round"/>
<path d="M170.939 147.733C170.939 173.053 161.931 190.583 147.566 198.617L136.124 205.191C137.828 204.217 139.532 202.999 140.993 201.539C142.941 199.834 144.888 197.643 146.593 195.452C153.897 185.957 158.036 172.323 158.036 155.037C158.036 104.883 122.976 44.2596 79.6395 19.1826C65.0315 10.6613 51.1539 7.49629 39.4676 8.71362C36.546 8.95708 33.6244 9.68751 31.1898 10.4179C29.729 11.6352 28.2682 13.3395 26.8074 14.8003L22.9119 14.3133L36.7894 6.27896H37.0329C51.1539 -1.99888 70.8747 -0.781522 92.7866 11.6352C135.88 36.9557 170.939 97.5788 170.939 147.733Z" fill="#262626" stroke="#262626" stroke-width="0.75" stroke-miterlimit="10" stroke-linecap="round" stroke-linejoin="round"/>
<path d="M79.6392 19.1828C65.0313 10.6615 51.1537 7.49644 39.4674 8.71377C36.5458 8.95723 33.6242 9.68766 31.1895 10.4181C29.7287 11.6354 28.268 13.3396 26.8072 14.8004C18.7728 24.2956 14.1469 38.66 14.1469 56.92C14.1469 105.37 47.0148 163.802 88.1605 190.096C89.6213 191.07 91.0822 192.044 92.543 192.774C94.0038 193.748 95.4645 194.478 96.9253 195.209C111.29 202.513 124.68 204.947 135.88 202.756C137.584 202.513 139.288 202.026 140.993 201.539C142.94 199.835 144.888 197.643 146.592 195.452C153.896 185.957 158.035 172.323 158.035 155.037C158.035 105.126 122.976 44.2598 79.6392 19.1828ZM126.872 176.949C117.133 179.383 105.447 177.436 92.543 169.888C60.162 151.141 34.1112 105.857 34.1112 68.6065C34.1112 53.7551 38.25 42.3121 45.3105 35.2516C56.023 24.5391 73.0657 23.5652 92.543 34.7647C124.924 53.5115 150.975 98.7961 150.975 136.046C150.975 158.689 141.48 173.053 126.872 176.949Z" fill="#262626" stroke="#262626" stroke-width="0.75" stroke-miterlimit="10" stroke-linecap="round" stroke-linejoin="round"/>
<path d="M79.6395 19.1827C61.3795 8.71364 44.5804 6.03551 30.9463 10.6614C12.6863 16.748 1 35.7384 1 64.4674C1 112.917 33.8679 171.349 75.0136 197.643C76.4744 198.617 77.9352 199.591 79.396 200.321C80.8568 201.295 82.3176 202.026 83.7784 202.756C85.2392 203.486 86.4565 204.217 87.9173 204.704C90.8389 206.165 93.7605 207.138 96.6821 208.112C111.534 212.738 124.924 211.764 135.15 205.678C135.393 205.678 135.637 205.434 135.88 205.191C137.584 204.217 139.289 203 140.749 201.539C142.697 199.834 144.645 197.643 146.349 195.452C153.653 185.957 157.792 172.323 157.792 155.037C158.036 105.126 122.976 44.2597 79.6395 19.1827ZM82.3176 181.331C48.9628 160.393 20.4773 111.213 19.0165 71.7714C17.5557 32.3299 43.363 17.4785 76.9613 38.4165C110.316 59.3546 138.802 108.535 140.262 147.976C141.723 187.418 115.672 202.269 82.3176 181.331Z" fill="white" stroke="#262626" stroke-width="0.75" stroke-miterlimit="10" stroke-linecap="round" stroke-linejoin="round"/>
</svg>
