<svg width="230" height="306" viewBox="0 0 230 306" fill="none" xmlns="http://www.w3.org/2000/svg">
<path d="M157.401 232.731L157.329 232.767L157.271 232.824L157.063 233.033L156.388 233.482L150.803 236.639L150.794 236.645L150.784 236.651C149.907 237.199 148.726 237.488 147.518 237.488C146.31 237.488 145.129 237.199 144.252 236.651L144.244 236.645L144.235 236.64L134.016 230.801L134.007 230.796L131.581 229.34L131.581 229.34L131.573 229.335L106.976 215.21L106.976 215.21L93.8338 207.666L91.9419 206.483L91.7387 206.28L91.6813 206.223L91.6087 206.186C90.7481 205.756 90.4238 205.171 90.4238 204.685V204.442C90.4238 203.956 90.7481 203.371 91.6087 202.941L91.6246 202.933L91.64 202.924L98.1995 199.037C99.0844 198.598 100.274 198.367 101.491 198.367C102.71 198.367 103.902 198.599 104.787 199.038L117.195 206.094L117.501 206.268L117.768 206.039C122.995 201.558 125.979 194.843 125.979 188.125V166.919L149.575 183.273V205.172C149.575 210.854 146.732 216.308 142.229 219.625L141.615 220.078L142.275 220.46L146.902 223.139L146.906 223.141L157.53 229.178C157.866 229.628 158.128 230.002 158.311 230.341C158.503 230.697 158.586 230.978 158.586 231.23C158.586 231.716 158.262 232.301 157.401 232.731Z" fill="white" stroke="#262626"/>
<mask id="path-2-inside-1_1_233" fill="white">
<path d="M149.588 199.328C146.666 197.136 143.5 195.431 140.334 193.727C139.36 193.239 138.143 192.752 137.169 192.996C135.951 193.239 134.977 194.457 134.246 195.431C132.785 197.623 131.567 199.815 130.106 202.006C128.645 204.198 126.697 205.903 124.505 207.121C122.07 208.095 119.147 208.095 117.199 206.39C121.096 203.468 123.531 198.841 124.505 194.214C125.479 189.343 125.479 183.742 125.236 178.871C126.453 179.602 131.811 183.498 135.22 184.96C139.117 186.664 143.013 189.099 146.666 191.291C147.64 191.778 148.614 192.509 149.101 193.483C150.076 195.188 149.589 197.136 149.101 199.084"/>
</mask>
<path d="M149.588 199.328C146.666 197.136 143.5 195.431 140.334 193.727C139.36 193.239 138.143 192.752 137.169 192.996C135.951 193.239 134.977 194.457 134.246 195.431C132.785 197.623 131.567 199.815 130.106 202.006C128.645 204.198 126.697 205.903 124.505 207.121C122.07 208.095 119.147 208.095 117.199 206.39C121.096 203.468 123.531 198.841 124.505 194.214C125.479 189.343 125.479 183.742 125.236 178.871C126.453 179.602 131.811 183.498 135.22 184.96C139.117 186.664 143.013 189.099 146.666 191.291C147.64 191.778 148.614 192.509 149.101 193.483C150.076 195.188 149.589 197.136 149.101 199.084" fill="#ADADAD"/>
<path d="M140.334 193.727L140.808 192.846L140.795 192.839L140.782 192.832L140.334 193.727ZM137.169 192.996L137.365 193.977L137.388 193.972L137.411 193.966L137.169 192.996ZM134.246 195.431L133.446 194.831L133.43 194.853L133.414 194.877L134.246 195.431ZM124.505 207.121L124.876 208.049L124.935 208.025L124.991 207.995L124.505 207.121ZM117.199 206.39L116.599 205.59L115.612 206.33L116.541 207.143L117.199 206.39ZM124.505 194.214L125.484 194.42L125.486 194.41L124.505 194.214ZM125.236 178.871L125.75 178.014L124.143 177.05L124.237 178.921L125.236 178.871ZM135.22 184.96L135.621 184.043L135.614 184.04L135.22 184.96ZM146.666 191.291L146.152 192.149L146.185 192.168L146.219 192.186L146.666 191.291ZM149.101 193.483L148.207 193.93L148.219 193.955L148.233 193.979L149.101 193.483ZM150.188 198.528C147.196 196.284 143.964 194.545 140.808 192.846L139.86 194.607C143.037 196.317 146.136 197.988 148.988 200.128L150.188 198.528ZM140.782 192.832C140.272 192.577 139.658 192.301 139.019 192.124C138.391 191.949 137.65 191.845 136.926 192.026L137.411 193.966C137.661 193.904 138.016 193.921 138.484 194.051C138.941 194.178 139.423 194.389 139.887 194.621L140.782 192.832ZM136.972 192.015C136.105 192.189 135.393 192.692 134.841 193.21C134.284 193.732 133.813 194.342 133.446 194.831L135.046 196.031C135.41 195.547 135.791 195.061 136.209 194.669C136.631 194.274 137.015 194.046 137.365 193.977L136.972 192.015ZM133.414 194.877C132.671 195.991 131.991 197.104 131.323 198.197C130.652 199.296 129.992 200.375 129.274 201.452L130.938 202.561C131.682 201.446 132.361 200.334 133.029 199.24C133.701 198.142 134.36 197.063 135.078 195.986L133.414 194.877ZM129.274 201.452C127.909 203.499 126.085 205.099 124.019 206.246L124.991 207.995C127.309 206.707 129.381 204.897 130.938 202.561L129.274 201.452ZM124.134 206.192C121.894 207.088 119.417 207.002 117.858 205.637L116.541 207.143C118.878 209.187 122.245 209.102 124.876 208.049L124.134 206.192ZM117.799 207.19C121.935 204.088 124.473 199.222 125.484 194.42L123.527 194.008C122.589 198.459 120.256 202.847 116.599 205.59L117.799 207.19ZM125.486 194.41C126.485 189.415 126.479 183.714 126.234 178.821L124.237 178.921C124.479 183.77 124.474 189.271 123.524 194.017L125.486 194.41ZM124.721 179.729C125.318 180.087 126.875 181.188 128.861 182.48C130.778 183.727 133.034 185.11 134.826 185.879L135.614 184.04C133.997 183.347 131.87 182.052 129.952 180.803C128.101 179.599 126.371 178.386 125.75 178.014L124.721 179.729ZM134.82 185.876C138.642 187.548 142.47 189.94 146.152 192.149L147.181 190.434C143.556 188.259 139.592 185.78 135.621 184.043L134.82 185.876ZM146.219 192.186C147.107 192.63 147.859 193.235 148.207 193.93L149.996 193.036C149.369 191.783 148.174 190.927 147.113 190.397L146.219 192.186ZM148.233 193.979C148.973 195.273 148.643 196.794 148.131 198.842L150.072 199.327C150.534 197.478 151.179 195.102 149.97 192.987L148.233 193.979Z" fill="#262626" mask="url(#path-2-inside-1_1_233)"/>
<path d="M154.946 183.255V205.416C154.946 212.235 152.023 218.566 146.909 222.95L142.282 220.271C146.909 216.862 149.832 211.261 149.832 205.416V183.255H154.946Z" fill="#262626" stroke="#262626" stroke-width="0.75" stroke-miterlimit="10" stroke-linecap="round" stroke-linejoin="round"/>
<path d="M159.086 231.23C159.086 231.96 158.599 232.691 157.625 233.178L157.381 233.422L156.651 233.909L151.049 237.075C149.101 238.292 145.935 238.292 143.987 237.075L133.759 231.23L131.324 229.769L106.727 215.644L93.5767 208.095L91.6286 206.877L91.3851 206.634C90.411 206.146 89.9238 205.416 89.9238 204.685V204.442C89.9238 203.711 90.411 202.981 91.3851 202.494L97.9604 198.597C99.9086 197.623 103.074 197.623 105.023 198.597L117.443 205.659C122.557 201.276 125.479 194.701 125.479 188.125V165.964L150.075 183.011V205.172C150.075 211.017 147.153 216.618 142.526 220.028L147.153 222.706L157.868 228.795C158.599 229.769 159.086 230.499 159.086 231.23Z" stroke="#262626" stroke-width="0.75" stroke-miterlimit="10" stroke-linecap="round" stroke-linejoin="round"/>
<path d="M217.046 206.633V225.872C217.046 227.577 216.559 228.551 215.585 229.281C215.342 229.281 215.342 229.525 215.098 229.525C214.124 230.012 212.906 229.768 211.445 229.038L64.5979 144.29C61.6755 142.585 59.2402 138.445 59.2402 135.036V115.797L70.6861 122.373L217.046 206.633Z" fill="white" stroke="#262626" stroke-width="0.75" stroke-miterlimit="10" stroke-linecap="round" stroke-linejoin="round"/>
<path d="M217.045 102.403V206.633L70.9283 122.373L59.4824 115.798V11.324C59.4824 9.37582 60.2131 8.15818 61.4308 7.67112C62.4049 7.18407 63.6224 7.42759 64.8401 8.15817L70.9283 11.8111L71.9024 12.2981L156.894 61.4908L166.391 67.0919L211.444 93.1494C214.853 94.8541 217.045 98.9941 217.045 102.403Z" fill="#ADADAD" stroke="#262626" stroke-width="0.75" stroke-miterlimit="10" stroke-linecap="round" stroke-linejoin="round"/>
<path d="M228.736 199.815V219.053C228.736 220.758 228.249 221.976 227.275 222.463L216.073 229.038C216.803 228.551 217.534 227.333 217.534 225.629V206.633L228.736 199.815Z" fill="#262626" stroke="#262626" stroke-width="0.75" stroke-miterlimit="10" stroke-linecap="round" stroke-linejoin="round"/>
<path d="M227.274 90.7142L215.585 97.2895C214.611 95.5848 213.15 93.8801 211.688 93.1495L166.636 67.092L157.138 61.4909L72.147 12.2982L71.1729 11.8112L65.0847 8.15823C63.8671 7.42765 62.6494 7.18413 61.6753 7.67118L72.6341 1.33944C73.6082 0.852386 75.0693 0.852401 76.5304 1.58298L168.584 54.6721L178.082 60.2732L223.134 86.3307C224.839 87.3048 226.3 89.0095 227.274 90.7142Z" fill="white" stroke="#262626" stroke-width="0.75" stroke-miterlimit="10" stroke-linecap="round" stroke-linejoin="round"/>
<path d="M228.735 95.8284V200.058L217.289 206.634V102.404C217.289 100.699 216.802 98.9943 215.828 97.2896L227.517 90.7144C228.248 92.4191 228.735 94.1237 228.735 95.8284Z" fill="#262626" stroke="#262626" stroke-width="0.75" stroke-miterlimit="10" stroke-linecap="round" stroke-linejoin="round"/>
<path d="M159.087 231.23V237.075C159.087 237.805 158.6 238.536 157.626 239.023L151.05 242.919C149.102 243.893 145.936 243.893 143.988 242.919L91.1423 212.478C90.1681 211.991 89.6812 211.017 89.6812 210.286V204.685C89.6812 205.416 90.1681 206.146 91.1423 206.634L91.3859 206.877L93.3341 208.095L106.485 215.644L131.081 229.769L133.516 231.23L143.744 237.075C145.693 238.292 148.858 238.292 150.807 237.075L156.408 233.909L157.138 233.422L157.382 233.178C158.6 232.691 159.087 231.96 159.087 231.23Z" fill="#262626" stroke="#262626" stroke-width="0.75" stroke-miterlimit="10" stroke-linecap="round" stroke-linejoin="round"/>
<path d="M172.479 276.039C172.479 277.5 171.505 278.961 169.557 279.935L168.826 280.422L167.365 281.153L139.603 297.226C135.95 299.418 129.618 299.418 125.965 297.226L8.34107 229.282L4.44468 227.09L3.71413 226.603C2.00943 225.629 1.03523 224.167 1.03523 222.95V222.463C1.03523 221.002 2.00937 219.784 3.9576 218.81L33.9115 201.519C37.5644 199.328 43.8962 199.328 47.5492 201.519L169.8 272.142C171.505 273.117 172.479 274.578 172.479 276.039Z" fill="white" stroke="#262626" stroke-width="0.75" stroke-miterlimit="10" stroke-linecap="round" stroke-linejoin="round"/>
<path d="M125.236 254.852C125.236 256.07 124.506 257.044 123.288 257.774L122.801 258.018L121.827 258.749L101.37 270.681C98.6916 272.143 94.0646 272.143 91.3858 270.681L74.0952 260.697C73.3646 260.21 73.3646 258.992 74.0952 258.505L76.287 257.287H76.5305C76.774 257.044 77.0176 256.8 77.0176 256.557C77.0176 256.313 76.774 256.07 76.5305 256.07L37.566 233.422C37.079 233.178 36.1049 233.178 35.3743 233.422L33.4262 234.639C31.965 235.613 30.0168 235.613 28.5556 234.639L17.1098 228.064L14.1874 226.359L13.7003 226.116C12.4827 225.385 11.7521 224.411 11.7521 223.437V223.193C11.7521 222.219 12.4827 221.245 13.7003 220.515L35.6178 207.851C38.2966 206.39 42.9237 206.39 45.6025 207.851L123.288 252.66C124.506 252.66 125.236 253.634 125.236 254.852Z" fill="#ADADAD" stroke="#262626" stroke-width="0.75" stroke-miterlimit="10" stroke-linecap="round" stroke-linejoin="round"/>
<path d="M161.279 275.795C161.279 277.013 160.548 277.987 159.33 278.718L158.843 278.961L157.869 279.692L137.413 291.625C134.734 293.086 130.107 293.086 127.428 291.625L111.356 282.371L108.433 280.666L107.946 280.422C106.728 279.692 105.998 278.718 105.998 277.744V277.257C105.998 276.282 106.728 275.308 107.946 274.578L129.864 261.914C132.542 260.453 137.169 260.453 139.848 261.914L159.087 273.117C160.548 273.604 161.279 274.821 161.279 275.795Z" fill="#ADADAD" stroke="#262626" stroke-width="0.75" stroke-miterlimit="10" stroke-linecap="round" stroke-linejoin="round"/>
<path d="M172.48 276.039V281.884C172.48 283.345 171.506 284.806 169.558 285.78L139.604 303.071C135.951 305.262 129.62 305.262 125.967 303.071L3.71559 232.448C1.76737 231.23 0.79317 229.769 1.0367 228.308V222.95C1.0367 224.168 2.0109 225.629 3.71559 226.603L4.44615 227.09L8.34254 229.282L125.967 297.226C129.62 299.418 135.951 299.418 139.604 297.226L167.366 281.153L168.828 280.423L169.558 279.935C171.506 278.961 172.48 277.5 172.48 276.039Z" fill="#262626" stroke="#262626" stroke-width="0.75" stroke-miterlimit="10" stroke-linecap="round" stroke-linejoin="round"/>
<path d="M68.494 113.849L207.061 193.97C208.523 194.944 210.471 193.727 210.471 192.022V118.964L67.2764 36.1641V111.901C67.5199 112.875 67.7634 113.606 68.494 113.849Z" fill="white" stroke="#262626" stroke-width="0.75" stroke-miterlimit="10" stroke-linecap="round" stroke-linejoin="round"/>
<path d="M67.52 36.4074L210.714 119.207V103.621C210.714 102.647 210.227 101.429 209.253 100.942L71.9035 21.5522C69.9552 20.3345 67.2764 21.7957 67.2764 24.231V36.4074H67.52Z" fill="#262626" stroke="#262626" stroke-width="0.75" stroke-miterlimit="10" stroke-linecap="round" stroke-linejoin="round"/>
<path d="M77.9924 33.7289C77.9924 35.4336 76.7747 36.1641 75.3135 35.19C73.8523 34.2159 72.6348 32.2677 72.6348 30.563C72.6348 28.8583 73.8523 28.1277 75.3135 29.1018C76.7747 29.8324 77.9924 32.0242 77.9924 33.7289Z" fill="#E84142" stroke="#262626" stroke-width="0.75" stroke-miterlimit="10" stroke-linecap="round" stroke-linejoin="round"/>
<path d="M84.714 39.7523C85.7623 39.1471 85.7397 37.1458 84.6637 35.2822C83.5878 33.4186 81.8658 32.3985 80.8175 33.0037C79.7693 33.6089 79.7917 35.6103 80.8677 37.4739C81.9436 39.3375 83.6657 40.3576 84.714 39.7523Z" fill="#FFAD28" stroke="#262626" stroke-width="0.75" stroke-miterlimit="10" stroke-linecap="round" stroke-linejoin="round"/>
<path d="M93.0915 42.4955C93.0915 44.2002 91.8738 44.9307 90.4126 43.9566C88.9515 42.9825 87.7339 41.0343 87.7339 39.3296C87.7339 37.6249 88.9515 36.8943 90.4126 37.8684C91.8738 38.599 93.0915 40.7908 93.0915 42.4955Z" fill="#ADADAD" stroke="#262626" stroke-width="0.75" stroke-miterlimit="10" stroke-linecap="round" stroke-linejoin="round"/>
<path d="M88.4629 113.119V106.787L98.9346 109.222V104.839H109.65L120.365 110.927L130.837 109.466L136.438 108.492L141.552 111.414V143.56" stroke="#262626" stroke-width="0.75" stroke-miterlimit="10" stroke-linecap="round" stroke-linejoin="round"/>
<path d="M98.9346 104.839V119.207" stroke="#262626" stroke-width="0.75" stroke-miterlimit="10" stroke-linecap="round" stroke-linejoin="round"/>
<path d="M109.65 104.839V125.295" stroke="#262626" stroke-width="0.75" stroke-miterlimit="10" stroke-linecap="round" stroke-linejoin="round"/>
<path d="M120.364 110.927V131.383" stroke="#262626" stroke-width="0.75" stroke-miterlimit="10" stroke-linecap="round" stroke-linejoin="round"/>
<path d="M130.838 109.466V137.228" stroke="#262626" stroke-width="0.75" stroke-miterlimit="10" stroke-linecap="round" stroke-linejoin="round"/>
<path d="M98.2041 76.5896L151.293 107.518" stroke="#262626" stroke-width="0.75" stroke-miterlimit="10" stroke-linecap="round" stroke-linejoin="round"/>
<path d="M98.2041 67.3354L126.453 83.6518" stroke="#262626" stroke-width="0.75" stroke-miterlimit="10" stroke-linecap="round" stroke-linejoin="round"/>
<path d="M79.9409 66.3616L90.6562 72.6933C91.6303 73.1804 92.1173 72.6933 92.1173 71.4757V65.8745C92.1173 64.6569 91.3868 63.4393 90.6562 62.9522L79.9409 56.6205C78.9668 56.1334 78.4798 56.6205 78.4798 57.8381V63.4393C78.2363 64.6569 78.9668 65.8745 79.9409 66.3616Z" fill="#FFAD28" stroke="#262626" stroke-width="0.75" stroke-miterlimit="10" stroke-linecap="round" stroke-linejoin="round"/>
<path d="M79.9409 85.3565L90.6562 91.6882C91.6303 92.1753 92.1173 91.6882 92.1173 90.4706V84.8694C92.1173 83.6518 91.3868 82.4342 90.6562 81.9471L79.9409 75.6154C78.9668 75.1283 78.4798 75.6154 78.4798 76.833V82.4341C78.2363 83.4083 78.9668 84.8694 79.9409 85.3565Z" fill="#E84142" stroke="#262626" stroke-width="0.75" stroke-miterlimit="10" stroke-linecap="round" stroke-linejoin="round"/>
<path d="M88.4631 106.787L78.2349 100.942V107.274" stroke="#262626" stroke-width="0.75" stroke-miterlimit="10" stroke-linecap="round" stroke-linejoin="round"/>
<path d="M141.552 111.414L151.293 117.015V149.404" stroke="#262626" stroke-width="0.75" stroke-miterlimit="10" stroke-linecap="round" stroke-linejoin="round"/>
<path d="M78.2349 107.274L151.293 149.404" stroke="#262626" stroke-width="0.75" stroke-miterlimit="10" stroke-linecap="round" stroke-linejoin="round"/>
<path d="M163.2 148.123C156.42 132.738 158.836 116.787 168.574 112.522C178.313 108.232 191.725 117.256 198.505 132.64C205.284 148.024 202.893 163.975 193.13 168.265C183.391 172.506 169.98 163.507 163.2 148.123Z" fill="#E84142" stroke="#262626" stroke-width="0.5" stroke-miterlimit="10"/>
<path d="M186.423 137.941V139.79L180.654 136.437L180.605 150.07L179.003 149.134L179.052 135.524L173.258 132.171L173.283 130.347L186.423 137.941Z" fill="white" stroke="#262626" stroke-width="0.5" stroke-miterlimit="10"/>
<path d="M179.791 153.177C173.554 149.577 168.499 140.825 168.524 133.651C168.549 126.476 173.628 123.592 179.865 127.191C186.103 130.791 191.157 139.543 191.132 146.717C191.132 153.867 186.029 156.776 179.791 153.177ZM179.89 125.145C172.666 120.978 166.774 124.331 166.749 132.615C166.724 140.899 172.567 151.032 179.791 155.198C187.015 159.365 192.883 156.012 192.907 147.728C192.932 139.444 187.089 129.311 179.89 125.145Z" fill="white" stroke="#262626" stroke-width="0.5" stroke-miterlimit="10"/>
</svg>
