<svg width="25" height="19" viewBox="0 0 25 19" fill="none" xmlns="http://www.w3.org/2000/svg">
<path d="M8.47643 0.392288C6.64221 0.64986 4.44115 1.53185 3.48111 2.39042C3.10646 2.72604 2.96597 2.92897 2.54449 3.80315C1.19419 6.59741 0.156104 10.8434 0.0390259 14.1138L0 15.2065L0.390259 15.7295C0.921012 16.4319 1.67811 17.0407 2.66157 17.5403C4.05869 18.2584 5.96316 18.7969 6.89198 18.7423L7.29785 18.7189L8.00031 17.7276C8.5857 16.9081 8.7418 16.7363 8.86669 16.7676C9.62379 16.9705 11.2004 17.1188 12.4961 17.1188C13.784 17.1188 15.5869 16.9471 16.1567 16.7754C16.2504 16.7441 16.4611 16.9861 16.9451 17.673C17.3119 18.1881 17.6709 18.6486 17.7412 18.6876C18.2875 18.9842 20.6915 18.3832 22.3306 17.5403C23.3297 17.0251 24.0322 16.471 24.5785 15.7529L25 15.2065L24.9532 14.1138C24.8361 10.8825 23.8136 6.65985 22.4945 3.88901C21.995 2.83531 21.7296 2.49188 21.0584 2.03918C19.7705 1.165 17.2182 0.337652 15.8055 0.337652C15.5011 0.337652 15.4387 0.368874 15.306 0.587418C15.2279 0.727911 15.1108 1.0089 15.0562 1.21964L14.9625 1.59429L14.3693 1.53185C13.62 1.45379 11.38 1.45379 10.6229 1.53185L10.0375 1.59429L9.89697 1.11817C9.67843 0.361069 9.46769 0.251795 8.47643 0.392288ZM8.90571 1.66453C8.90571 1.75039 8.85888 1.83625 8.81205 1.85186C7.11833 2.31236 5.07337 3.23338 4.84702 3.63925C4.74555 3.82657 4.74555 3.8734 4.84702 4.06073C5.08117 4.48221 5.29191 4.4744 6.23634 3.98267C9.98283 2.03138 15.0094 2.03138 18.7559 3.98267C19.6925 4.46659 19.911 4.48221 20.1374 4.07634C20.231 3.90462 20.231 3.84999 20.1374 3.65486C19.95 3.2724 18.311 2.46847 16.867 2.05479C16.2348 1.87527 16.1177 1.81283 16.1021 1.66453C16.0709 1.49282 16.0865 1.49282 16.5314 1.54746C18.0456 1.73478 20.114 2.53872 20.8164 3.21777C21.2769 3.66266 22.0574 5.42663 22.635 7.36232C23.2673 9.45411 23.7434 11.9752 23.8526 13.9031C23.9073 14.7538 23.9073 14.785 23.7121 15.0348C23.0097 15.9558 22.0028 16.6193 20.473 17.15C19.833 17.3686 18.631 17.6652 18.35 17.6652C18.2407 17.6652 17.3978 16.4788 17.468 16.4163C17.4992 16.3851 17.6709 16.3149 17.8426 16.2602C18.3578 16.0963 19.4427 15.5734 20.0437 15.1987C20.9257 14.6524 21.1052 14.3245 20.7306 13.9577C20.4652 13.6923 20.2466 13.7157 19.7861 14.0592C18.5998 14.949 16.508 15.6983 14.4786 15.948C13.4405 16.0807 11.2785 16.0573 10.2716 15.909C8.19544 15.5968 6.21293 14.8631 5.12801 14.0045C4.9641 13.8718 4.76116 13.7626 4.6753 13.7626C4.58945 13.7626 4.45676 13.7235 4.3709 13.6767C4.05869 13.5128 3.67624 13.786 3.67624 14.1684C3.67624 14.4494 3.86357 14.6992 4.07431 14.6992C4.16016 14.6992 4.45676 14.8631 4.74555 15.066C5.29191 15.4329 6.59538 16.0885 7.14955 16.2602C7.32126 16.3149 7.49298 16.3851 7.5242 16.4163C7.60225 16.4866 6.74368 17.6652 6.61099 17.6652C6.34561 17.6574 5.02654 17.3295 4.41773 17.1188C2.97377 16.6037 1.96691 15.9324 1.27224 15.027C1.08492 14.785 1.08492 14.746 1.13175 13.9733C1.3503 10.6483 2.32594 6.70668 3.52794 4.27927C3.73868 3.84999 3.97284 3.42851 4.05089 3.34265C4.55823 2.74165 6.21293 1.99235 7.75835 1.67234C8.72619 1.4694 8.90571 1.4694 8.90571 1.66453Z" fill="white"/>
<path d="M8.32012 8.01002C6.43126 8.63444 5.90051 11.2648 7.3835 12.6619C7.91425 13.1692 8.26548 13.3175 8.94453 13.3254C9.90457 13.341 10.7007 12.8024 11.1612 11.819C11.3329 11.4443 11.3641 11.2804 11.3641 10.6404C11.3641 10.0003 11.3329 9.83644 11.1534 9.45398C10.7319 8.54078 9.98262 8.00222 9.06942 7.93978C8.82746 7.92417 8.49183 7.95539 8.32012 8.01002ZM9.3504 9.08714C10.3807 9.4774 10.6383 11.0306 9.81091 11.8658C9.40504 12.2717 9.046 12.3575 8.54647 12.1624C7.844 11.897 7.44594 10.9682 7.6879 10.1486C7.8362 9.64131 8.04694 9.36032 8.42159 9.15739C8.7494 8.98567 9.03039 8.96226 9.3504 9.08714Z" fill="white"/>
<path d="M15.5012 7.97881C14.7909 8.16613 14.1899 8.69689 13.8309 9.46179C13.6592 9.83644 13.6279 10.0004 13.6279 10.6404C13.6279 11.2804 13.6592 11.4443 13.8309 11.819C14.2914 12.7946 15.0875 13.341 16.0475 13.3254C18.2642 13.3019 19.3023 10.2657 17.6554 8.61883C17.109 8.07247 16.1802 7.79929 15.5012 7.97881ZM16.5471 9.15739C16.9451 9.35252 17.1559 9.63351 17.3042 10.1486C17.5461 10.9682 17.1481 11.897 16.4456 12.1624C15.9461 12.3575 15.587 12.2717 15.1812 11.8658C14.5255 11.2102 14.5099 10.1096 15.1343 9.43838C15.548 8.99348 16.0475 8.89982 16.5471 9.15739Z" fill="white"/>
</svg>
