<svg width="208" height="90" viewBox="0 0 208 90" fill="none" xmlns="http://www.w3.org/2000/svg">
<path d="M0 0H85.4594L84.4916 10.4042L1.25818 10.2106L0 0Z" fill="#7A18D5"/>
<path d="M15.8704 55.3594L43.7923 77.4259L44.879 83.796L43.7923 89.8625L7.74059 61.3115L15.8704 55.3594Z" fill="#7A18D5"/>
<path d="M15.3899 50.0852L15.9222 55.5051L12.7517 59.2868L7.74405 61.3121L5.37248 42.5361L15.3899 50.0852Z" fill="#7A18D5"/>
<path d="M70.9918 55.6502L43.7958 77.4264L43.2634 83.5721L43.7958 89.863L79.315 61.07L77.1718 51.6688L70.9918 55.6502Z" fill="#7A18D5"/>
<path d="M28.9387 44.8589H63.8289L60.3932 53.9081H26.4707L28.9387 44.8589Z" fill="#7A18D5"/>
<path d="M1.23047 9.88184L11.4668 9.14605L13.3541 33.0031L4.59519 37.1647L1.23047 9.88184Z" fill="#7A18D5"/>
<path d="M4.59766 37.165L13.2597 32.7614L29.6645 44.9561L26.4668 53.9085L4.59766 37.165Z" fill="#7A18D5"/>
<path d="M4.59766 37.165L13.2597 32.7614L29.6645 44.9561L26.4668 53.9085L4.59766 37.165Z" fill="#7A18D5"/>
<path d="M75.6835 9.25851L84.5877 9.33996L82.1682 34.068L73.9416 27.1964L75.6835 9.25851Z" fill="#7A18D5"/>
<rect x="26.3262" y="21.3887" width="35.1322" height="9.0976" fill="#7A18D5"/>
<path d="M61.4648 21.3887L81.4921 37.9386L73.7979 43.3584L55.5226 28.7445L61.4648 21.3887Z" fill="#7A18D5"/>
<path d="M81.4893 37.9385L79.3116 61.0696L70.9883 55.6498L72.2736 37.4545L81.4893 37.9385Z" fill="#7A18D5"/>
<path d="M14.9053 30.8252L26.3258 21.389L32.4715 27.3411L22.1156 35.9063L14.9053 30.8252Z" fill="#7A18D5"/>
<path d="M57.585 44.811L64.263 39.3428L69.9732 44.7142L60.3917 53.9086L57.585 44.811Z" fill="#7A18D5"/>
<path d="M108.853 43.7198H99.3045L99.3648 36.6934H108.853C111.223 36.6934 113.221 36.1629 114.847 35.1019C116.474 34.021 117.699 32.4495 118.523 30.3876C119.366 28.3258 119.787 25.8336 119.787 22.9109V20.7789C119.787 18.5369 119.547 16.565 119.065 14.8635C118.602 13.162 117.909 11.7306 116.986 10.5696C116.062 9.40856 114.928 8.53767 113.582 7.95725C112.237 7.35661 110.691 7.05638 108.943 7.05638H99.1238V0H108.943C111.875 0 114.556 0.500392 116.986 1.50135C119.435 2.48225 121.555 3.89346 123.341 5.73514C125.129 7.57682 126.505 9.77888 127.468 12.3412C128.452 14.8836 128.944 17.7161 128.944 20.8389V22.9109C128.944 26.0137 128.452 28.8462 127.468 31.4086C126.505 33.9709 125.129 36.173 123.341 38.0147C121.575 39.8363 119.455 41.2475 116.986 42.2485C114.536 43.2294 111.825 43.7198 108.853 43.7198ZM104.425 0V43.7198H95.3887V0H104.425ZM151.755 24.5324H140.489L140.43 18.3467H149.888C151.554 18.3467 152.92 18.1364 153.984 17.7161C155.048 17.2757 155.842 16.6452 156.364 15.8244C156.905 14.9836 157.177 13.9626 157.177 12.7615C157.177 11.4004 156.915 10.2993 156.393 9.4586C155.891 8.61787 155.098 8.00729 154.013 7.62686C152.95 7.24659 151.574 7.05638 149.888 7.05638H143.622V43.7198H134.585V0H149.888C152.438 0 154.716 0.240256 156.724 0.720599C158.752 1.20111 160.469 1.93165 161.876 2.91255C163.282 3.89346 164.355 5.13467 165.099 6.63601C165.842 8.11731 166.212 9.87896 166.212 11.9208C166.212 13.7225 165.802 15.384 164.979 16.9053C164.174 18.4267 162.9 19.668 161.152 20.6288C159.425 21.5897 157.167 22.1202 154.375 22.2203L151.755 24.5324ZM151.363 43.7198H138.02L141.544 36.6934H151.363C152.95 36.6934 154.245 36.4432 155.249 35.9427C156.253 35.4222 156.996 34.7217 157.478 33.8409C157.96 32.96 158.201 31.9491 158.201 30.808C158.201 29.5269 157.98 28.4159 157.539 27.4751C157.116 26.5341 156.433 25.8135 155.49 25.3131C154.546 24.7925 153.302 24.5324 151.755 24.5324H143.049L143.11 18.3467H153.954L156.031 20.7789C158.703 20.7388 160.851 21.2092 162.477 22.1901C164.125 23.151 165.32 24.4021 166.062 25.9436C166.826 27.485 167.208 29.1365 167.208 30.8981C167.208 33.7007 166.594 36.0628 165.369 37.9845C164.145 39.8863 162.347 41.3176 159.978 42.2785C157.628 43.2393 154.757 43.7198 151.363 43.7198ZM180.499 0L188.752 15.2539L197.006 0H207.338L194.596 21.6798L207.669 43.7198H197.246L188.752 28.1657L180.259 43.7198H169.775L182.879 21.6798L170.106 0H180.499Z" fill="#7A18D5"/>
<path d="M102.392 70.5694H97.4255L97.4567 66.9453H102.392C103.624 66.9453 104.664 66.6717 105.51 66.1245C106.356 65.5669 106.993 64.7564 107.422 63.693C107.859 62.6294 108.079 61.344 108.079 59.8365V58.7369C108.079 57.5805 107.954 56.5635 107.702 55.6859C107.463 54.8083 107.103 54.0699 106.622 53.4711C106.142 52.8723 105.551 52.4231 104.852 52.1237C104.153 51.8139 103.348 51.6592 102.439 51.6592H97.3314V48.0195H102.439C103.963 48.0195 105.358 48.2776 106.622 48.794C107.897 49.2998 108.998 50.0276 109.928 50.9777C110.857 51.9276 111.573 53.0633 112.075 54.3849C112.586 55.6963 112.841 57.1571 112.841 58.7679V59.8365C112.841 61.437 112.586 62.8979 112.075 64.2195C111.573 65.5412 110.857 66.6769 109.928 67.6268C109.009 68.5663 107.907 69.2943 106.622 69.8105C105.348 70.3165 103.938 70.5694 102.392 70.5694ZM100.089 48.0195V70.5694H95.3887V48.0195H100.089ZM120.773 48.0195V70.5694H116.089V48.0195H120.773ZM142.775 58.7833V67.7198C142.42 68.1429 141.871 68.6025 141.13 69.0982C140.389 69.5833 139.433 70.0015 138.264 70.3526C137.094 70.7036 135.679 70.8791 134.017 70.8791C132.544 70.8791 131.203 70.6417 129.991 70.1668C128.78 69.6815 127.735 68.9741 126.858 68.045C125.99 67.1158 125.321 65.9799 124.852 64.6377C124.382 63.2852 124.148 61.7415 124.148 60.007V58.5975C124.148 56.863 124.372 55.3193 124.821 53.9668C125.281 52.6142 125.933 51.4732 126.779 50.544C127.625 49.6148 128.633 48.9075 129.803 48.4222C130.972 47.9369 132.272 47.6943 133.704 47.6943C135.689 47.6943 137.318 48.0144 138.592 48.6546C139.867 49.2843 140.838 50.162 141.507 51.2874C142.185 52.4025 142.603 53.6828 142.76 55.1283H138.2C138.085 54.3642 137.866 53.6983 137.543 53.1304C137.219 52.5625 136.754 52.1186 136.148 51.7985C135.554 51.4784 134.78 51.3184 133.829 51.3184C133.046 51.3184 132.347 51.4784 131.73 51.7985C131.124 52.1082 130.612 52.5676 130.195 53.1768C129.776 53.7861 129.459 54.5397 129.239 55.438C129.02 56.3363 128.91 57.3792 128.91 58.5666V60.007C128.91 61.1839 129.025 62.2268 129.255 63.1354C129.484 64.0337 129.824 64.7926 130.273 65.412C130.732 66.0213 131.296 66.4807 131.965 66.7904C132.634 67.1002 133.412 67.255 134.299 67.255C135.04 67.255 135.657 67.1931 136.148 67.0692C136.65 66.9453 137.052 66.7956 137.354 66.6201C137.668 66.4342 137.908 66.2587 138.075 66.0934V62.0977H133.782V58.7833H142.775ZM151.084 48.0195V70.5694H146.399V48.0195H151.084ZM164.734 48.0195V70.5694H160.049V48.0195H164.734ZM171.752 48.0195V51.6592H153.141V48.0195H171.752ZM181.534 51.8758L175.329 70.5694H170.332L178.808 48.0195H181.988L181.534 51.8758ZM186.688 70.5694L180.468 51.8758L179.967 48.0195H183.179L191.702 70.5694H186.688ZM186.406 62.1752V65.8148H174.358V62.1752H186.406ZM208 66.9453V70.5694H196.517V66.9453H208ZM198.037 48.0195V70.5694H193.335V48.0195H198.037Z" fill="#7A18D5"/>
<path d="M105.381 87.117V89.5503H97.4547V87.117H105.381ZM98.4571 74.4099V89.5503H95.3887V74.4099H98.4571ZM104.349 80.5762V82.9472H97.4547V80.5762H104.349ZM105.371 74.4099V76.8535H97.4547V74.4099H105.371ZM114.966 84.5278H118.025C117.963 85.5467 117.687 86.4515 117.196 87.2419C116.711 88.0321 116.034 88.6492 115.16 89.0928C114.295 89.5364 113.251 89.7583 112.03 89.7583C111.075 89.7583 110.221 89.5919 109.464 89.2592C108.707 88.9195 108.058 88.4342 107.519 87.8033C106.989 87.1725 106.582 86.4099 106.303 85.5157C106.023 84.6214 105.884 83.6196 105.884 82.5104V81.4602C105.884 80.3509 106.026 79.3493 106.313 78.4548C106.606 77.5537 107.023 76.7877 107.562 76.1569C108.106 75.5259 108.758 75.0407 109.515 74.701C110.271 74.3613 111.118 74.1914 112.052 74.1914C113.292 74.1914 114.339 74.4202 115.191 74.8777C116.05 75.3352 116.716 75.9662 117.186 76.7703C117.664 77.5745 117.949 78.4895 118.045 79.5155H114.976C114.942 78.9055 114.822 78.3891 114.618 77.9662C114.413 77.5363 114.104 77.214 113.687 76.9991C113.278 76.7772 112.733 76.6663 112.052 76.6663C111.54 76.6663 111.092 76.7635 110.711 76.9576C110.329 77.1516 110.009 77.4462 109.749 77.8414C109.491 78.2365 109.297 78.7356 109.167 79.3388C109.043 79.9349 108.982 80.6351 108.982 81.4393V82.5104C108.982 83.2938 109.04 83.9835 109.156 84.5798C109.273 85.1691 109.45 85.6682 109.689 86.0771C109.933 86.4792 110.248 86.7843 110.629 86.9922C111.018 87.1933 111.486 87.2937 112.03 87.2937C112.672 87.2937 113.201 87.1898 113.616 86.9819C114.032 86.7739 114.349 86.4654 114.567 86.0563C114.792 85.6474 114.925 85.1378 114.966 84.5278ZM131.435 81.6265V82.344C131.435 83.4949 131.281 84.5278 130.974 85.4428C130.668 86.3579 130.234 87.1378 129.675 87.7825C129.115 88.4204 128.448 88.909 127.671 89.2487C126.899 89.5885 126.044 89.7583 125.103 89.7583C124.169 89.7583 123.313 89.5885 122.536 89.2487C121.765 88.909 121.096 88.4204 120.53 87.7825C119.964 87.1378 119.525 86.3579 119.211 85.4428C118.905 84.5278 118.752 83.4949 118.752 82.344V81.6265C118.752 80.4687 118.905 79.4358 119.211 78.5277C119.519 77.6126 119.951 76.8327 120.51 76.188C121.076 75.5432 121.745 75.051 122.515 74.7115C123.292 74.3717 124.149 74.2019 125.083 74.2019C126.024 74.2019 126.879 74.3717 127.649 74.7115C128.428 75.051 129.095 75.5432 129.654 76.188C130.22 76.8327 130.658 77.6126 130.963 78.5277C131.278 79.4358 131.435 80.4687 131.435 81.6265ZM128.335 82.344V81.6057C128.335 80.8016 128.264 80.0945 128.12 79.4844C127.977 78.8744 127.766 78.3614 127.487 77.9454C127.206 77.5295 126.865 77.2174 126.463 77.0094C126.061 76.7946 125.6 76.6872 125.083 76.6872C124.564 76.6872 124.103 76.7946 123.701 77.0094C123.306 77.2174 122.968 77.5295 122.689 77.9454C122.416 78.3614 122.208 78.8744 122.066 79.4844C121.922 80.0945 121.85 80.8016 121.85 81.6057V82.344C121.85 83.1413 121.922 83.8483 122.066 84.4654C122.208 85.0755 122.419 85.5919 122.699 86.0148C122.978 86.4307 123.319 86.7462 123.721 86.9611C124.125 87.1759 124.585 87.2834 125.103 87.2834C125.622 87.2834 126.081 87.1759 126.483 86.9611C126.886 86.7462 127.223 86.4307 127.497 86.0148C127.769 85.5919 127.977 85.0755 128.12 84.4654C128.264 83.8483 128.335 83.1413 128.335 82.344ZM140.559 85.5885C140.559 85.318 140.518 85.0755 140.435 84.8605C140.361 84.6387 140.217 84.4376 140.006 84.2574C139.795 84.0702 139.498 83.8865 139.116 83.7063C138.734 83.526 138.241 83.3388 137.633 83.1447C136.959 82.9228 136.317 82.6733 135.71 82.3961C135.111 82.1187 134.579 81.7963 134.114 81.429C133.658 81.0546 133.296 80.6212 133.031 80.1292C132.771 79.637 132.643 79.065 132.643 78.4133C132.643 77.7824 132.778 77.2105 133.051 76.6975C133.323 76.1776 133.705 75.7339 134.197 75.3665C134.688 74.9921 135.268 74.7044 135.935 74.5035C136.611 74.3024 137.351 74.2019 138.155 74.2019C139.253 74.2019 140.211 74.4028 141.028 74.8051C141.848 75.2071 142.481 75.7582 142.932 76.4583C143.388 77.1585 143.616 77.9592 143.616 78.8605H140.569C140.569 78.4167 140.478 78.0286 140.293 77.6959C140.116 77.3562 139.842 77.0893 139.474 76.895C139.113 76.701 138.656 76.6039 138.104 76.6039C137.572 76.6039 137.129 76.6872 136.775 76.8535C136.42 77.013 136.153 77.2313 135.976 77.5087C135.8 77.779 135.71 78.084 135.71 78.4237C135.71 78.6802 135.771 78.9125 135.894 79.1204C136.025 79.3283 136.215 79.5226 136.467 79.7027C136.719 79.8831 137.03 80.0529 137.398 80.2123C137.766 80.3717 138.192 80.5276 138.677 80.6803C139.488 80.9299 140.201 81.2105 140.814 81.5226C141.435 81.8345 141.952 82.1846 142.37 82.5728C142.785 82.9609 143.099 83.4013 143.31 83.8935C143.522 84.3856 143.626 84.9437 143.626 85.5677C143.626 86.2262 143.501 86.8154 143.248 87.3355C142.996 87.8554 142.631 88.2955 142.153 88.656C141.677 89.0165 141.108 89.2903 140.445 89.4775C139.785 89.6647 139.045 89.7583 138.226 89.7583C137.491 89.7583 136.764 89.6613 136.048 89.4672C135.332 89.2661 134.682 88.9645 134.094 88.5624C133.514 88.1604 133.051 87.6474 132.703 87.0234C132.355 86.3995 132.181 85.6611 132.181 84.8086H135.261C135.261 85.2799 135.332 85.6785 135.476 86.0045C135.619 86.3303 135.82 86.5937 136.079 86.7947C136.344 86.9958 136.658 87.1412 137.02 87.2314C137.388 87.3216 137.79 87.3666 138.226 87.3666C138.758 87.3666 139.195 87.2903 139.535 87.1378C139.883 86.9853 140.14 86.7739 140.304 86.5035C140.472 86.2332 140.559 85.9282 140.559 85.5885ZM146.921 74.4099L150.03 81.3146L153.14 74.4099H156.485L151.585 84.039V89.5503H148.476V84.039L143.567 74.4099H146.921ZM164.596 85.5885C164.596 85.318 164.555 85.0755 164.474 84.8605C164.398 84.6387 164.256 84.4376 164.043 84.2574C163.832 84.0702 163.536 83.8865 163.155 83.7063C162.773 83.526 162.278 83.3388 161.671 83.1447C160.996 82.9228 160.355 82.6733 159.749 82.3961C159.148 82.1187 158.615 81.7963 158.153 81.429C157.697 81.0546 157.335 80.6212 157.068 80.1292C156.81 79.637 156.68 79.065 156.68 78.4133C156.68 77.7824 156.816 77.2105 157.088 76.6975C157.362 76.1776 157.744 75.7339 158.234 75.3665C158.725 74.9921 159.305 74.7044 159.974 74.5035C160.648 74.3024 161.388 74.2019 162.193 74.2019C163.29 74.2019 164.249 74.4028 165.067 74.8051C165.884 75.2071 166.52 75.7582 166.969 76.4583C167.427 77.1585 167.655 77.9592 167.655 78.8605H164.606C164.606 78.4167 164.514 78.0286 164.33 77.6959C164.153 77.3562 163.881 77.0893 163.513 76.895C163.151 76.701 162.693 76.6039 162.141 76.6039C161.609 76.6039 161.166 76.6872 160.812 76.8535C160.457 77.013 160.192 77.2313 160.014 77.5087C159.837 77.779 159.749 78.084 159.749 78.4237C159.749 78.6802 159.81 78.9125 159.931 79.1204C160.062 79.3283 160.252 79.5226 160.506 79.7027C160.757 79.8831 161.068 80.0529 161.437 80.2123C161.805 80.3717 162.231 80.5276 162.714 80.6803C163.526 80.9299 164.239 81.2105 164.852 81.5226C165.472 81.8345 165.991 82.1846 166.406 82.5728C166.822 82.9609 167.136 83.4013 167.347 83.8935C167.559 84.3856 167.665 84.9437 167.665 85.5677C167.665 86.2262 167.538 86.8154 167.287 87.3355C167.033 87.8554 166.67 88.2955 166.192 88.656C165.714 89.0165 165.145 89.2903 164.484 89.4775C163.822 89.6647 163.082 89.7583 162.264 89.7583C161.528 89.7583 160.801 89.6613 160.085 89.4672C159.369 89.2661 158.719 88.9645 158.132 88.5624C157.553 88.1604 157.088 87.6474 156.74 87.0234C156.394 86.3995 156.22 85.6611 156.22 84.8086H159.298C159.298 85.2799 159.369 85.6785 159.512 86.0045C159.656 86.3303 159.857 86.5937 160.116 86.7947C160.382 86.9958 160.697 87.1412 161.058 87.2314C161.425 87.3216 161.828 87.3666 162.264 87.3666C162.796 87.3666 163.232 87.2903 163.574 87.1378C163.922 86.9853 164.177 86.7739 164.34 86.5035C164.511 86.2332 164.596 85.9282 164.596 85.5885ZM175.573 74.4099V89.5503H172.513V74.4099H175.573ZM180.154 74.4099V76.8535H168.003V74.4099H180.154ZM191.058 87.117V89.5503H183.13V87.117H191.058ZM184.134 74.4099V89.5503H181.064V74.4099H184.134ZM190.024 80.5762V82.9472H183.13V80.5762H190.024ZM191.048 74.4099V76.8535H183.13V74.4099H191.048ZM193.411 74.4099H196.01L199.834 85.526L203.66 74.4099H206.259L200.878 89.5503H198.792L193.411 74.4099ZM192.009 74.4099H194.597L195.069 85.2453V89.5503H192.009V74.4099ZM205.071 74.4099H207.669V89.5503H204.601V85.2453L205.071 74.4099Z" fill="#7A18D5"/>
</svg>
