<svg width="22" height="21" viewBox="0 0 22 21" fill="none" xmlns="http://www.w3.org/2000/svg">
<path d="M21.2647 1.3372C20.98 1.10034 20.6364 0.945099 20.2704 0.888008C19.9045 0.830918 19.5299 0.874111 19.1866 1.01299L1.26566 8.24834C0.88241 8.40603 0.556176 8.67653 0.33026 9.02396C0.104343 9.37139 -0.0105725 9.77931 0.000764965 10.1936C0.0121025 10.6078 0.149157 11.0089 0.393738 11.3434C0.638319 11.678 0.978859 11.9302 1.37016 12.0667L4.99516 13.3274L7.01566 20.0091C7.04312 20.0983 7.08297 20.1833 7.13404 20.2615C7.14179 20.2735 7.15272 20.2824 7.16096 20.2941C7.21996 20.3764 7.29127 20.4492 7.37239 20.5098C7.39546 20.5274 7.41755 20.5439 7.44221 20.5595C7.53714 20.6225 7.64228 20.6685 7.75294 20.6956L7.76478 20.6966L7.77149 20.6995C7.83802 20.713 7.90574 20.7199 7.97364 20.72C7.98017 20.72 7.98597 20.7169 7.99244 20.7168C8.0949 20.715 8.19647 20.6973 8.29353 20.6644C8.31611 20.6568 8.33546 20.6439 8.35737 20.6346C8.42975 20.6046 8.49832 20.5662 8.56166 20.52C8.61238 20.4773 8.66312 20.4346 8.71388 20.3919L11.416 17.4085L15.4463 20.5305C15.8011 20.8068 16.2379 20.9569 16.6875 20.9573C17.1587 20.9567 17.6154 20.7941 17.9809 20.4968C18.3465 20.1996 18.5987 19.7856 18.6954 19.3245L21.958 3.30791C22.032 2.94743 22.0065 2.57363 21.8844 2.2265C21.7623 1.87937 21.5481 1.57198 21.2647 1.3372ZM8.37016 13.6458C8.2315 13.7839 8.13672 13.9599 8.0977 14.1517L7.78819 15.6557L7.00413 13.0626L11.0694 10.9456L8.37016 13.6458ZM16.6719 18.9495L11.9092 15.26C11.71 15.1061 11.46 15.0328 11.2092 15.0549C10.9583 15.077 10.725 15.1928 10.5557 15.3792L9.69029 16.3344L9.99613 14.8479L17.0791 7.76491C17.2482 7.59608 17.3512 7.37227 17.3695 7.13404C17.3878 6.8958 17.3201 6.6589 17.1788 6.46623C17.0375 6.27356 16.8319 6.13788 16.5992 6.08375C16.3664 6.02962 16.122 6.06063 15.9102 6.17116L5.74491 11.4638L2.02055 10.1009L19.999 2.90847L16.6719 18.9495Z" fill="white"/>
</svg>
