<svg width="23" height="20" viewBox="0 0 23 20" fill="none" xmlns="http://www.w3.org/2000/svg">
<path d="M22.0002 2.17213C22.0003 1.9955 21.9536 1.82199 21.8649 1.66927C21.7761 1.51656 21.6485 1.3901 21.4949 1.30276C21.3414 1.21543 21.1675 1.17034 20.9909 1.17209C20.8142 1.17385 20.6412 1.22238 20.4895 1.31275C19.9042 1.66114 19.274 1.92793 18.6165 2.10575C17.6774 1.29998 16.4798 0.859053 15.2425 0.86356C13.885 0.865122 12.5813 1.39415 11.6067 2.33894C10.632 3.28373 10.0626 4.57032 10.0188 5.92704C7.34281 5.5003 4.91746 4.10357 3.20528 2.00318C3.10212 1.87801 2.97037 1.77949 2.82114 1.71593C2.67192 1.65236 2.50959 1.62561 2.34786 1.63793C2.18622 1.65124 2.03026 1.70372 1.89345 1.79084C1.75665 1.87796 1.64313 1.99709 1.5627 2.13793C1.15023 2.85774 0.913333 3.66469 0.871252 4.49324C0.82917 5.32179 0.98309 6.14858 1.32051 6.90648L1.31856 6.90843C1.16691 7.00183 1.04175 7.13259 0.955067 7.28818C0.868381 7.44377 0.823061 7.619 0.823442 7.79711C0.821606 7.94404 0.830419 8.09091 0.849812 8.23656C0.951949 9.49483 1.50959 10.6726 2.41817 11.5491C2.35654 11.6665 2.31892 11.795 2.30751 11.9271C2.29611 12.0593 2.31115 12.1923 2.35176 12.3186C2.74788 13.5527 3.59026 14.5947 4.71407 15.2405C3.57231 15.682 2.33949 15.8359 1.12422 15.6887C0.899294 15.6605 0.671452 15.7095 0.47807 15.8278C0.284688 15.9461 0.137249 16.1266 0.0599373 16.3397C-0.0173743 16.5528 -0.0199674 16.7859 0.0525831 17.0006C0.125134 17.2154 0.26852 17.3991 0.459222 17.5217C2.54932 18.8679 4.9829 19.5836 7.46899 19.5833C10.2883 19.615 13.039 18.7141 15.2932 17.0207C17.5475 15.3273 19.1789 12.9364 19.9338 10.2199C20.2869 9.03657 20.4671 7.8084 20.469 6.57349C20.469 6.50806 20.469 6.44068 20.468 6.3733C20.9901 5.81023 21.3946 5.1486 21.6577 4.4272C21.9208 3.70579 22.0372 2.93912 22.0002 2.17213ZM18.6936 5.38404C18.5284 5.57938 18.4448 5.83084 18.4602 6.08619C18.4699 6.25119 18.469 6.41719 18.469 6.57349C18.4669 7.61703 18.314 8.65479 18.0149 9.65455C17.3984 11.9659 16.024 14.0036 14.1119 15.4411C12.1999 16.8787 9.86067 17.633 7.46899 17.5833C6.60987 17.5835 5.75371 17.4826 4.91821 17.2825C5.98362 16.9391 6.9798 16.4098 7.86059 15.719C8.02282 15.5913 8.14154 15.4165 8.20048 15.2186C8.25942 15.0207 8.25567 14.8094 8.18977 14.6137C8.12386 14.4181 7.99902 14.2476 7.83237 14.1257C7.66572 14.0038 7.46544 13.9364 7.25899 13.9329C6.42782 13.9199 5.63412 13.5849 5.04512 12.9983C5.19454 12.97 5.34298 12.9348 5.49044 12.8928C5.70645 12.8313 5.89549 12.6989 6.0271 12.517C6.15872 12.335 6.22526 12.114 6.21601 11.8896C6.20677 11.6652 6.12227 11.4504 5.97613 11.2799C5.82998 11.1094 5.6307 10.993 5.41036 10.9495C4.9279 10.8542 4.47391 10.6489 4.08368 10.3497C3.69345 10.0504 3.37749 9.66513 3.16036 9.22388C3.34109 9.24855 3.52297 9.26387 3.70528 9.26978C3.92187 9.27305 4.13388 9.20735 4.31066 9.08218C4.48744 8.95702 4.61983 8.77886 4.68868 8.57349C4.75466 8.36625 4.75127 8.14315 4.67901 7.93802C4.60676 7.73289 4.46958 7.55691 4.28829 7.43677C3.84844 7.14374 3.48814 6.74619 3.23965 6.27973C2.99116 5.81326 2.86225 5.29245 2.86446 4.76393C2.86446 4.69753 2.86641 4.63112 2.87032 4.56569C5.11158 6.65594 8.01864 7.88814 11.0793 8.04518C11.2338 8.05127 11.3877 8.02217 11.5293 7.96008C11.6709 7.89799 11.7965 7.80454 11.8967 7.68678C11.9959 7.56788 12.0661 7.42759 12.1019 7.27694C12.1376 7.12629 12.1379 6.9694 12.1027 6.81862C12.0455 6.57998 12.0164 6.33549 12.0158 6.0901C12.0167 5.23463 12.3569 4.41447 12.9619 3.80957C13.5668 3.20466 14.3869 2.86443 15.2424 2.86353C15.6825 2.86235 16.1181 2.95243 16.5217 3.12808C16.9253 3.30372 17.288 3.56113 17.5871 3.88404C17.7024 4.00812 17.8476 4.10063 18.0088 4.15277C18.17 4.20492 18.3418 4.21495 18.508 4.18193C18.9188 4.10199 19.3237 3.99432 19.7199 3.85967C19.4496 4.41264 19.1043 4.92562 18.6936 5.38404Z" fill="white"/>
</svg>
