<svg width="23" height="17" viewBox="0 0 23 17" fill="none" xmlns="http://www.w3.org/2000/svg">
<path d="M21.2593 6.28931L21.2588 6.30226V6.31521C21.2588 6.94113 21.2582 10.277 21.2207 10.8018L21.2185 10.8328L21.2189 10.8638C21.2312 11.9361 21.068 13.0032 20.7357 14.0228L20.7346 14.0262C20.6506 14.2884 20.5055 14.5268 20.3113 14.722C20.0097 15.0158 19.6279 15.2134 19.2143 15.2903C15.6291 15.5655 12.5918 15.6149 9.11953 15.5653L9.10616 15.5651L9.09279 15.5654C6.96524 15.6108 4.83718 15.5034 2.72504 15.2439C2.32485 15.1653 1.95602 14.9724 1.66318 14.6886C1.40844 14.397 1.22827 14.0479 1.13832 13.6711L1.13652 13.6635L1.13457 13.656C0.977453 13.0532 0.884787 12.4355 0.858129 11.8131L0.857738 11.804L0.857126 11.7949C0.714425 9.67282 0.714292 7.54357 0.856726 5.42149C0.858045 5.40565 0.859361 5.38984 0.860675 5.37404C0.910356 4.77696 0.957975 4.20466 1.08703 3.6809C1.21849 3.14742 1.4172 2.74328 1.71727 2.46655L1.71732 2.4666L1.72457 2.45972C2.01574 2.18393 2.37899 1.99654 2.77202 1.91898C5.50618 1.67583 8.25131 1.57772 10.9959 1.6251L11.0085 1.62532L11.0212 1.62511C13.7761 1.57979 16.5315 1.68121 19.2756 1.92893C19.7367 2.01915 20.1557 2.25654 20.4699 2.60471C21.032 3.74885 21.3033 5.01442 21.2593 6.28931ZM7.99882 11.4552V12.7137L9.10572 12.1148C10.1025 11.5755 11.1286 11.0543 12.1186 10.5514L12.2023 10.5089C13.2133 9.99525 14.1884 9.49897 15.0324 9.0312L16.2479 8.35755L15.0176 7.71125L9.09762 4.60125L7.99882 4.02401V5.26521V11.4552Z" stroke="white" stroke-width="1.5"/>
</svg>
